<?xml version="1.0" encoding="UTF-8" standalone="no"?>
<!-- Generator: Adobe Illustrator 19.1.0, SVG Export Plug-In . SVG Version: 6.00 Build 0)  -->

<svg
   xmlns:dc="http://purl.org/dc/elements/1.1/"
   xmlns:cc="http://creativecommons.org/ns#"
   xmlns:rdf="http://www.w3.org/1999/02/22-rdf-syntax-ns#"
   xmlns:svg="http://www.w3.org/2000/svg"
   xmlns="http://www.w3.org/2000/svg"
   xmlns:sodipodi="http://sodipodi.sourceforge.net/DTD/sodipodi-0.dtd"
   xmlns:inkscape="http://www.inkscape.org/namespaces/inkscape"
   version="1.1"
   id="Livello_1"
   x="0px"
   y="0px"
   viewBox="0 0 595.3 841.9"
   style="enable-background:new 0 0 595.3 841.9;"
   xml:space="preserve"
   inkscape:version="0.91 r13725"
   sodipodi:docname="figura4.svg"><metadata
     id="metadata103"><rdf:RDF><cc:Work
         rdf:about=""><dc:format>image/svg+xml</dc:format><dc:type
           rdf:resource="http://purl.org/dc/dcmitype/StillImage" /><dc:title></dc:title></cc:Work></rdf:RDF></metadata><defs
     id="defs101" /><sodipodi:namedview
     pagecolor="#ffffff"
     bordercolor="#666666"
     borderopacity="1"
     objecttolerance="10"
     gridtolerance="10"
     guidetolerance="10"
     inkscape:pageopacity="0"
     inkscape:pageshadow="2"
     inkscape:window-width="640"
     inkscape:window-height="480"
     id="namedview99"
     showgrid="false"
     inkscape:zoom="3.1714397"
     inkscape:cx="165.8386"
     inkscape:cy="712.9725"
     inkscape:window-x="469"
     inkscape:window-y="121"
     inkscape:window-maximized="0"
     inkscape:current-layer="Livello_1" /><style
     type="text/css"
     id="style3">
	.st0{fill:none;stroke:#000000;stroke-miterlimit:10;}
	.st1{fill:none;stroke:#000000;stroke-width:0.75;stroke-miterlimit:10;}
	.st2{font-family:'MyriadPro-Regular';}
	.st3{font-size:9.9774px;}
	.st4{fill:none;}
</style><ellipse
     class="st0"
     cx="38.3"
     cy="62.5"
     rx="31.9"
     ry="46.1"
     id="ellipse5" /><ellipse
     class="st0"
     cx="137.9"
     cy="63.8"
     rx="31.9"
     ry="46.1"
     id="ellipse7" /><g
     id="g9"><g
       id="g11"><line
         class="st1"
         x1="76.1"
         y1="62.5"
         x2="94.1"
         y2="62.5"
         id="line13" /><g
         id="g15"><polygon
           points="99.4,62.5 91.9,65.6 93.7,62.5 91.9,59.5    "
           id="polygon17" /></g></g></g><g
     id="g19"><g
       id="g21"><line
         class="st1"
         x1="177.6"
         y1="63.8"
         x2="195.5"
         y2="63.8"
         id="line23" /><g
         id="g25"><polygon
           points="200.8,63.8 193.4,66.9 195.1,63.8 193.4,60.8    "
           id="polygon27" /></g></g></g><g
     id="g29"><g
       id="g31"><line
         class="st1"
         x1="208.7"
         y1="10.9"
         x2="208.7"
         y2="114.4"
         id="line33" /><g
         id="g35"><polygon
           points="208.7,5.6 205.6,13.1 208.7,11.3 211.7,13.1    "
           id="polygon37" /></g></g></g><text
     transform="matrix(1.0112 0 0 1 61.8181 25.9249)"
     class="st2 st3"
     id="text39">$U’$</text>
<text
     transform="matrix(1.0112 0 0 1 163.2703 25.9249)"
     class="st2 st3"
     id="text41">$U$</text>
<text
     transform="matrix(1.0112 0 0 1 163.2703 25.9249)"
     class="st2 st3"
     id="text43">$U$</text>
<text
     transform="matrix(1.0112 0 0 1 218.2 25.9249)"
     class="st2 st3"
     id="text45">$\R^m$</text>
<line
     class="st4"
     x1="206.7"
     y1="58.8"
     x2="210.7"
     y2="58.8"
     id="line47" /><line
     class="st4"
     x1="205.9"
     y1="58.8"
     x2="212.2"
     y2="58.5"
     id="line49" /><line
     class="st4"
     x1="217.6"
     y1="60.4"
     x2="217.6"
     y2="60.4"
     id="line51" /><line
     class="st1"
     x1="206.8"
     y1="61.8"
     x2="210.6"
     y2="61.8"
     id="line53" /><line
     class="st1"
     x1="206.8"
     y1="65.8"
     x2="210.6"
     y2="65.8"
     id="line55" /><line
     class="st1"
     x1="206.7"
     y1="63.8"
     x2="210.6"
     y2="63.8"
     id="line57" /><line
     class="st1"
     x1="206.8"
     y1="67.7"
     x2="210.6"
     y2="67.7"
     id="line59" /><line
     class="st1"
     x1="206.7"
     y1="59.8"
     x2="210.6"
     y2="59.8"
     id="line61" /><text
     transform="scale(1.0055844,0.99444661)"
     class="st2 st3"
     id="text63"
     x="80.078705"
     y="57.559868"
     style="font-size:10.03311729px;font-family:MyriadPro-Regular">$\phi$</text>
<text
     transform="scale(1.0055844,0.99444661)"
     class="st2 st3"
     id="text65"
     x="181.60638"
     y="59.462318"
     style="font-size:10.03311729px;font-family:MyriadPro-Regular">$f$</text>
<g
     id="g67"><g
       id="g69"><path
         class="st1"
         d="M56.3,111.8c36.8,32.9,98.9,23.8,141-19.8"
         id="path71" /><g
         id="g73"><polygon
           points="200.8,88.1 198,95.7 196.9,92.3 193.5,91.5    "
           id="polygon75" /></g></g></g><text
     transform="matrix(1.0112 0 0 1 128.5403 141.4249)"
     class="st2 st3"
     id="text77">$\pi$</text>
<path
     class="st0"
     d="M105.9,63c0.7-2.3,3.1-3.7,5.3-4.5c4.3-1.5,10.9-2.1,15,0.2c3.4,1.9,6.5,4.1,9.4,6.7c1.6,1.5,2.9,3.3,5,4.1  c2.5,0.9,5.2,1.4,7.8,1c7.9-1,13.1-9.9,21.1-10.7"
     id="path79" /><path
     class="st0"
     d="M106.6,54.4c0.7-2.3,3-3.7,5.2-4.5c4.2-1.5,10.7-2.1,14.7,0.2c3.3,1.9,6.4,4.1,9.2,6.7c1.6,1.5,2.8,3.3,4.9,4.1  c2.4,0.9,5.1,1.4,7.7,1c7.7-1,12.9-9.9,20.6-10.7"
     id="path81" /><path
     class="st0"
     d="M106.3,70.7c0.7-2.3,3.1-3.7,5.3-4.5c4.3-1.5,10.9-2.1,15,0.2c3.4,1.9,6.5,4.1,9.4,6.7c1.6,1.5,2.9,3.3,5,4.1  c2.5,0.9,5.2,1.4,7.8,1c7.9-1,13.1-9.9,21.1-10.7"
     id="path83" /><path
     class="st0"
     d="M107.8,79.3c0.7-2.3,2.9-3.7,5.1-4.5c4.1-1.5,10.4-2.1,14.3,0.2c3.2,1.9,6.2,4.1,9,6.7c1.6,1.5,2.8,3.3,4.8,4.1  c2.3,0.9,5,1.4,7.5,1c7.5-1,12.5-9.9,20.1-10.7"
     id="path85" /><line
     class="st0"
     x1="70.2"
     y1="64.8"
     x2="6.3"
     y2="64.8"
     id="line87" /><line
     class="st0"
     x1="69.7"
     y1="56.3"
     x2="6.9"
     y2="56.3"
     id="line89" /><line
     class="st0"
     x1="69.7"
     y1="73.4"
     x2="6.9"
     y2="73.4"
     id="line91" /><line
     class="st0"
     x1="67.8"
     y1="81.2"
     x2="8.8"
     y2="81.2"
     id="line93" /><line
     class="st0"
     x1="69.2"
     y1="48.5"
     x2="7.8"
     y2="48.5"
     id="line95" /><path
     class="st0"
     d="M108.5,45.8c0.6-2.3,2.8-3.7,4.9-4.5c3.9-1.5,9.9-2.1,13.6,0.2c3.1,1.9,6,4.1,8.6,6.7c1.5,1.5,2.6,3.3,4.5,4.1  c2.2,0.9,4.7,1.4,7.1,1c7.2-1,12-9.9,19.2-10.7"
     id="path97" /></svg>