<?xml version="1.0" encoding="UTF-8" standalone="no"?>
<!-- Created with Inkscape (http://www.inkscape.org/) -->

<svg
   xmlns:dc="http://purl.org/dc/elements/1.1/"
   xmlns:cc="http://creativecommons.org/ns#"
   xmlns:rdf="http://www.w3.org/1999/02/22-rdf-syntax-ns#"
   xmlns:svg="http://www.w3.org/2000/svg"
   xmlns="http://www.w3.org/2000/svg"
   xmlns:sodipodi="http://sodipodi.sourceforge.net/DTD/sodipodi-0.dtd"
   xmlns:inkscape="http://www.inkscape.org/namespaces/inkscape"
   width="744.09448819"
   height="1052.3622047"
   id="svg2"
   version="1.1"
   inkscape:version="0.48.5 r10040"
   sodipodi:docname="fig27.svg">
  <defs
     id="defs4">
    <marker
       inkscape:stockid="EmptyTriangleOutL"
       orient="auto"
       refY="0.0"
       refX="0.0"
       id="EmptyTriangleOutL"
       style="overflow:visible">
      <path
         id="path3975"
         d="M 5.77,0.0 L -2.88,5.0 L -2.88,-5.0 L 5.77,0.0 z "
         style="fill-rule:evenodd;fill:#FFFFFF;stroke:#000000;stroke-width:1.0pt"
         transform="scale(0.8) translate(-6,0)" />
    </marker>
  </defs>
  <sodipodi:namedview
     id="base"
     pagecolor="#ffffff"
     bordercolor="#666666"
     borderopacity="1.0"
     inkscape:pageopacity="0.0"
     inkscape:pageshadow="2"
     inkscape:zoom="1.4"
     inkscape:cx="383.99081"
     inkscape:cy="910.36091"
     inkscape:document-units="px"
     inkscape:current-layer="layer1"
     showgrid="true"
     inkscape:window-width="1920"
     inkscape:window-height="1014"
     inkscape:window-x="0"
     inkscape:window-y="27"
     inkscape:window-maximized="1">
    <inkscape:grid
       type="xygrid"
       id="grid3037" />
  </sodipodi:namedview>
  <metadata
     id="metadata7">
    <rdf:RDF>
      <cc:Work
         rdf:about="">
        <dc:format>image/svg+xml</dc:format>
        <dc:type
           rdf:resource="http://purl.org/dc/dcmitype/StillImage" />
        <dc:title></dc:title>
      </cc:Work>
    </rdf:RDF>
  </metadata>
  <g
     inkscape:label="Livello 1"
     inkscape:groupmode="layer"
     id="layer1">
    <path
       style="fill:none;stroke:#000000;stroke-width:0.53429991px;stroke-linecap:butt;stroke-linejoin:miter;stroke-opacity:1"
       d="M 135,92.362183 C 111.82452,87.499513 78.007335,110.74777 115.25998,146.15123 147.68887,176.97038 166.37399,96.580773 135,92.362183 z"
       id="path2999"
       inkscape:connector-curvature="0"
       sodipodi:nodetypes="csc" />
    <path
       style="fill:none;stroke:#000000;stroke-width:0.53047723px;stroke-linecap:butt;stroke-linejoin:miter;stroke-opacity:1"
       d="m 198.60676,90.870873 c -8.28019,0.36013 -20.57811,8.73981 -24.6141,24.743657 -11.22801,44.5223 24.96679,44.59371 40.94226,24.74367 18.11444,-22.50778 6.35038,-50.148557 -16.32816,-49.487327 z"
       id="path3005"
       inkscape:connector-curvature="0"
       sodipodi:nodetypes="cssc" />
    <path
       style="fill:none;stroke:#000000;stroke-width:0.53429991px;stroke-linecap:butt;stroke-linejoin:miter;stroke-opacity:1"
       d="M 330,92.362183 C 306.82452,87.499513 273.00733,110.74777 310.25998,146.15123 342.68887,176.97038 361.37399,96.580773 330,92.362183 z"
       id="path2999-1"
       inkscape:connector-curvature="0"
       sodipodi:nodetypes="csc" />
    <path
       style="fill:none;stroke:#000000;stroke-width:0.53047723px;stroke-linecap:butt;stroke-linejoin:miter;stroke-opacity:1"
       d="m 393.60676,90.870873 c -8.28019,0.36013 -20.57811,8.73981 -24.6141,24.743657 -11.22801,44.5223 24.96679,44.59371 40.94226,24.74367 18.11444,-22.50778 6.35038,-50.148557 -16.32816,-49.487327 z"
       id="path3005-3"
       inkscape:connector-curvature="0"
       sodipodi:nodetypes="cssc" />
    <path
       style="fill:#000000;stroke:#000000;stroke-width:0.53429990999999999px;stroke-linecap:butt;stroke-linejoin:miter;stroke-opacity:1;fill-opacity:0.23529412"
       d="M 525,92.362183 C 501.82452,87.499513 468.00734,110.74777 505.25998,146.15123 537.68887,176.97038 556.37399,96.580773 525,92.362183 z"
       id="path2999-3"
       inkscape:connector-curvature="0"
       sodipodi:nodetypes="csc" />
    <path
       style="fill:#000000;stroke:#000000;stroke-width:0.53047723000000002px;stroke-linecap:butt;stroke-linejoin:miter;stroke-opacity:1;fill-opacity:0.23529412"
       d="m 588.60677,90.870873 c -8.2802,0.36013 -20.57812,8.73981 -24.61411,24.743657 -11.22801,44.5223 24.9668,44.59371 40.94227,24.74367 18.11444,-22.50778 6.35038,-50.148557 -16.32816,-49.487327 z"
       id="path3005-32"
       inkscape:connector-curvature="0"
       sodipodi:nodetypes="cssc" />
    <path
       style="fill:none;stroke:#000000;stroke-width:1px;stroke-linecap:butt;stroke-linejoin:miter;stroke-opacity:1;marker-end:url(#EmptyTriangleOutL)"
       d="m 245,117.36218 30,0"
       id="path3039"
       inkscape:connector-curvature="0" />
    <path
       style="fill:none;stroke:#000000;stroke-width:1;stroke-linecap:round;stroke-linejoin:miter;stroke-opacity:1;stroke-miterlimit:4;stroke-dasharray:none;marker-end:url(#EmptyTriangleOutL)"
       d="m 440,117.36218 30,0"
       id="path3041"
       inkscape:connector-curvature="0" />
    <rect
       style="fill:#ffffff;fill-opacity:1;stroke:none"
       id="rect4809"
       width="27"
       height="15"
       x="539"
       y="112.36218" />
    <path
       style="fill:none;stroke:#000000;stroke-width:0.50000000000000000;stroke-linecap:round;stroke-linejoin:miter;stroke-opacity:1;stroke-miterlimit:4;stroke-dasharray:none"
       d="m 540.81042,112.3521 24.18053,0"
       id="path4817"
       inkscape:connector-curvature="0" />
    <path
       style="fill:none;stroke:#000000;stroke-width:0.50000000000000000;stroke-linecap:round;stroke-linejoin:miter;stroke-opacity:1;stroke-miterlimit:4;stroke-dasharray:none"
       d="m 540.17907,127.31499 21.78142,0"
       id="path4819"
       inkscape:connector-curvature="0" />
    <path
       style="fill:none;stroke:#000000;stroke-width:0.33544108px;stroke-linecap:butt;stroke-linejoin:miter;stroke-opacity:1"
       d="m 326,101.36218 c -13.61141,-3.263333 -33.47291,12.33859 -11.5937,36.09788 19.04612,20.68276 30.02026,-33.26678 11.5937,-36.09788 z"
       id="path2999-1-2"
       inkscape:connector-curvature="0"
       sodipodi:nodetypes="csc" />
    <path
       style="fill:none;stroke:#000000;stroke-width:0.35290313px;stroke-linecap:butt;stroke-linejoin:miter;stroke-opacity:1"
       d="m 393.85515,100.36194 c -5.33367,0.24744 -13.25537,6.00473 -15.85515,17.00024 -7.23252,30.58923 16.08234,30.6383 26.37293,17.00024 11.6684,-15.46406 4.09059,-34.454763 -10.51778,-34.00048 z"
       id="path3005-3-6"
       inkscape:connector-curvature="0"
       sodipodi:nodetypes="cssc" />
    <path
       style="fill:#ffffff;stroke:#000000;stroke-width:0.33544108000000000px;stroke-linecap:butt;stroke-linejoin:miter;stroke-opacity:1;fill-opacity:1"
       d="m 521.62707,101.36195 c -13.61141,-3.263336 -33.47291,12.33858 -11.5937,36.09787 19.04612,20.68276 30.02026,-33.26678 11.5937,-36.09787 z"
       id="path2999-1-2-8"
       inkscape:connector-curvature="0"
       sodipodi:nodetypes="csc" />
    <path
       style="fill:#ffffff;stroke:#000000;stroke-width:0.35290313000000001px;stroke-linecap:butt;stroke-linejoin:miter;stroke-opacity:1;fill-opacity:1"
       d="m 589.48222,100.36171 c -5.33367,0.24744 -13.25537,6.00472 -15.85515,17.00023 -7.23252,30.58923 16.08234,30.6383 26.37293,17.00024 11.6684,-15.46406 4.09059,-34.454756 -10.51778,-34.00047 z"
       id="path3005-3-6-2"
       inkscape:connector-curvature="0"
       sodipodi:nodetypes="cssc" />
    <rect
       style="fill:#000000;fill-opacity:0.23529412;stroke:none"
       id="rect4809-4"
       width="27"
       height="15"
       x="539"
       y="112.36218" />
  </g>
</svg>
