<?xml version="1.0" encoding="UTF-8" standalone="no"?>
<!-- Created with Inkscape (http://www.inkscape.org/) -->

<svg
   xmlns:dc="http://purl.org/dc/elements/1.1/"
   xmlns:cc="http://creativecommons.org/ns#"
   xmlns:rdf="http://www.w3.org/1999/02/22-rdf-syntax-ns#"
   xmlns:svg="http://www.w3.org/2000/svg"
   xmlns="http://www.w3.org/2000/svg"
   xmlns:sodipodi="http://sodipodi.sourceforge.net/DTD/sodipodi-0.dtd"
   xmlns:inkscape="http://www.inkscape.org/namespaces/inkscape"
   width="744.09448819"
   height="1052.3622047"
   id="svg2"
   version="1.1"
   inkscape:version="0.48.5 r10040"
   sodipodi:docname="fig28.svg">
  <defs
     id="defs4" />
  <sodipodi:namedview
     id="base"
     pagecolor="#ffffff"
     bordercolor="#666666"
     borderopacity="1.0"
     inkscape:pageopacity="0.0"
     inkscape:pageshadow="2"
     inkscape:zoom="2.8"
     inkscape:cx="298.43513"
     inkscape:cy="832.16922"
     inkscape:document-units="px"
     inkscape:current-layer="layer1"
     showgrid="false"
     inkscape:window-width="1920"
     inkscape:window-height="1014"
     inkscape:window-x="0"
     inkscape:window-y="27"
     inkscape:window-maximized="1" />
  <metadata
     id="metadata7">
    <rdf:RDF>
      <cc:Work
         rdf:about="">
        <dc:format>image/svg+xml</dc:format>
        <dc:type
           rdf:resource="http://purl.org/dc/dcmitype/StillImage" />
        <dc:title />
      </cc:Work>
    </rdf:RDF>
  </metadata>
  <g
     inkscape:label="Livello 1"
     inkscape:groupmode="layer"
     id="layer1">
    <path
       style="fill:none;stroke:#000000;stroke-width:0.91996133px;stroke-linecap:butt;stroke-linejoin:miter;stroke-opacity:1"
       d="m 444.14519,107.28282 c -12.77606,-1.87988 -18.03291,-1.33382 -25.66474,-0.0863 -33.48299,5.47318 -29.60453,22.32712 -50.99389,30.72488 -9.19572,3.61038 -23.77982,4.20292 -50.59413,-4.72104 -19.38644,-6.45193 -37.9975,-4.72106 -48.88781,-1.53485 -12.42517,3.63528 -25.91236,13.10158 -33.82599,26.31675 -12.16809,20.31977 -2.66755,64.77369 37.88631,72.0263 21.30664,3.81045 40.29281,1.85881 51.21609,-6.39055 7.82606,-5.91031 12.42375,-12.72455 22.65083,-24.81597 4.99102,-5.90086 17.87836,-13.28087 25.258,-15.43205 15.07294,-4.39376 41.06236,-9.63093 56.51248,-10.34772 12.17254,-0.56471 31.79654,-4.49465 36.63552,-7.29073 17.99522,-10.39805 17.91581,-27.99935 15.28357,-35.02106 -6.36304,-16.9739 -25.63625,-21.11891 -35.47624,-23.42765 z"
       id="path2991"
       inkscape:connector-curvature="0"
       sodipodi:nodetypes="cssssssssssssc" />
    <path
       sodipodi:type="arc"
       style="fill:#ffffff;fill-opacity:1;stroke:#000000;stroke-opacity:1"
       id="path2993"
       sodipodi:cx="281.07495"
       sodipodi:cy="194.23759"
       sodipodi:rx="15.909903"
       sodipodi:ry="10.101525"
       d="m 296.98485,194.23759 a 15.909903,10.101525 0 1 1 -31.8198,0 15.909903,10.101525 0 1 1 31.8198,0 z"
       transform="matrix(1.3612881,-0.31343855,0.28644496,0.59328064,-11.187111,112.81788)"
       inkscape:transform-center-x="199.61814"
       inkscape:transform-center-y="32.003693" />
    <path
       sodipodi:type="arc"
       style="fill:#ffffff;fill-opacity:1;stroke:#000000;stroke-width:1;stroke-linecap:round;stroke-miterlimit:4;stroke-opacity:1;stroke-dasharray:none;stroke-dashoffset:0"
       id="path3763"
       sodipodi:cx="286.37823"
       sodipodi:cy="197.26805"
       sodipodi:rx="22.223356"
       sodipodi:ry="11.616755"
       d="m 308.60159,197.26805 a 22.223356,11.616755 0 1 1 -44.44671,0 22.223356,11.616755 0 1 1 44.44671,0 z"
       transform="matrix(1.0659199,-0.17646578,0.21883547,0.91117909,-54.710965,46.165181)" />
    <path
       style="fill:none;stroke:#000000;stroke-width:1px;stroke-linecap:round;stroke-linejoin:miter;stroke-opacity:1"
       d="m 358.85669,140.19443 c 19.74735,-0.83727 25.57703,32.83824 12.37437,42.67895"
       id="path3765"
       inkscape:connector-curvature="0"
       sodipodi:nodetypes="cc" />
    <path
       style="fill:none;stroke:#000000;stroke-width:1;stroke-linecap:butt;stroke-linejoin:miter;stroke-opacity:1;stroke-miterlimit:4;stroke-dasharray:3,3;stroke-dashoffset:0"
       d="m 358.98296,140.06816 c -19.65507,4.61697 -6.57842,50.75796 11.99556,42.80522"
       id="path3769"
       inkscape:connector-curvature="0"
       sodipodi:nodetypes="cc" />
    <text
       xml:space="preserve"
       style="font-size:14px;font-style:normal;font-variant:normal;font-weight:normal;font-stretch:normal;line-height:125%;letter-spacing:0px;word-spacing:0px;fill:#000000;fill-opacity:1;stroke:none;font-family:Latin Modern Math;-inkscape-font-specification:Latin Modern Math"
       x="367.5"
       y="196.29076"
       id="text3771"
       sodipodi:linespacing="125%"><tspan
         sodipodi:role="line"
         id="tspan3773"
         x="367.5"
         y="196.29076">$c$</tspan></text>
  </g>
</svg>
