<?xml version="1.0" encoding="UTF-8" standalone="no"?>
<!-- Created with Inkscape (http://www.inkscape.org/) -->

<svg
   xmlns:dc="http://purl.org/dc/elements/1.1/"
   xmlns:cc="http://creativecommons.org/ns#"
   xmlns:rdf="http://www.w3.org/1999/02/22-rdf-syntax-ns#"
   xmlns:svg="http://www.w3.org/2000/svg"
   xmlns="http://www.w3.org/2000/svg"
   xmlns:sodipodi="http://sodipodi.sourceforge.net/DTD/sodipodi-0.dtd"
   xmlns:inkscape="http://www.inkscape.org/namespaces/inkscape"
   width="210mm"
   height="297mm"
   viewBox="0 0 744.09448819 1052.3622047"
   id="svg4231"
   version="1.1"
   inkscape:version="0.91 r13725"
   sodipodi:docname="figura59.svg">
  <defs
     id="defs4233" />
  <sodipodi:namedview
     id="base"
     pagecolor="#ffffff"
     bordercolor="#666666"
     borderopacity="1.0"
     inkscape:pageopacity="0.0"
     inkscape:pageshadow="2"
     inkscape:zoom="1.979899"
     inkscape:cx="224.04643"
     inkscape:cy="862.67186"
     inkscape:document-units="px"
     inkscape:current-layer="layer1"
     showgrid="false"
     inkscape:window-width="1855"
     inkscape:window-height="1056"
     inkscape:window-x="65"
     inkscape:window-y="24"
     inkscape:window-maximized="1" />
  <metadata
     id="metadata4236">
    <rdf:RDF>
      <cc:Work
         rdf:about="">
        <dc:format>image/svg+xml</dc:format>
        <dc:type
           rdf:resource="http://purl.org/dc/dcmitype/StillImage" />
        <dc:title />
      </cc:Work>
    </rdf:RDF>
  </metadata>
  <g
     inkscape:label="Livello 1"
     inkscape:groupmode="layer"
     id="layer1">
    <path
       style="fill:none;fill-rule:evenodd;stroke:#000000;stroke-width:1px;stroke-linecap:butt;stroke-linejoin:miter;stroke-opacity:1"
       d="m 250.01276,67.968549 0,0 -128.79445,-0.505077 1.01015,0 c -18.77921,0.834284 1.22022,28.12223 -22.22336,33.335038 l -28.789346,7.07106 C 57.710283,111.82762 59.388218,80.357725 53.538085,66.45332 46.263128,45.042687 64.647768,44.626271 70.710678,34.128438 75.659435,28.721701 76.65702,21.119869 92.934034,22.006608 124.89007,25.239999 112.75886,39.910663 121.72338,49.280727 l 126.77415,0.505076 c 9.69268,2.806015 5.20266,-10.934459 7.57614,-16.667517 -0.1458,-7.58309 1.20022,-14.233796 22.22336,-8.586297 14.44091,3.638683 21.25279,11.091885 27.77919,18.687822 11.75905,14.691748 5.68319,21.45687 6.56599,31.314729 25.08291,3.584055 10.70622,67.32416 -5.55584,45.45686 -41.37224,-64.3143 -16.48653,2.30822 -43.43656,-11.61675 -17.32307,-7.55698 -12.33796,-11.661149 -11.61675,-22.223356 1.38049,-13.007569 2.56674,-18.465562 -2.0203,-18.182745 z"
       id="path4783"
       inkscape:connector-curvature="0"
       sodipodi:nodetypes="ccccccccccccccccccc" />
    <path
       style="fill:none;fill-rule:evenodd;stroke:#000000;stroke-width:1px;stroke-linecap:butt;stroke-linejoin:miter;stroke-opacity:1"
       d="m 83.842661,168.9838 c 2.486617,-0.42642 -26.925116,9.39488 -25.75889,22.22336 l -6.060915,47.98224 c -10.32195,27.72685 30.963618,28.29185 46.467017,42.42641 28.874617,13.00778 46.192477,-23.5073 47.477167,-35.35534 l 14.64721,-38.3858 c 11.42879,-22.55501 -47.67226,-53.29256 -75.25636,-39.39594 z"
       id="path4785"
       inkscape:connector-curvature="0"
       sodipodi:nodetypes="cccccccc" />
    <path
       style="fill:none;fill-rule:evenodd;stroke:#000000;stroke-width:1px;stroke-linecap:butt;stroke-linejoin:miter;stroke-opacity:1"
       d="m 248.49753,172.01426 c -8.64169,5.95418 -25.4099,7.4757 -20.70813,20.70813 l 4.54569,55.55839 c -1.96179,25.00499 59.56593,26.66532 67.68022,16.16244 39.77737,-34.98764 67.12983,-26.43581 51.51778,-43.43656 -10.35638,-13.3822 -5.79797,-34.75486 -31.81981,-39.39595 -23.73858,-3.19882 -25.96204,-25.95684 -71.21575,-9.59645 z"
       id="path4787"
       inkscape:connector-curvature="0"
       sodipodi:nodetypes="ccccccc" />
    <path
       style="fill:#000000;fill-opacity:0;stroke:#000000;stroke-width:1;stroke-miterlimit:4;stroke-dasharray:none;stroke-dashoffset:0;stroke-opacity:1"
       id="path4789"
       sodipodi:type="arc"
       sodipodi:cx="105.56094"
       sodipodi:cy="218.98636"
       sodipodi:rx="18.687822"
       sodipodi:ry="18.182745"
       sodipodi:start="0"
       sodipodi:end="6.2825919"
       sodipodi:open="true"
       d="m 124.24877,218.98636 a 18.687822,18.182745 0 0 1 -18.68505,18.18274 18.687822,18.182745 0 0 1 -18.690598,-18.17735 18.687822,18.182745 0 0 1 18.679508,-18.18813 18.687822,18.182745 0 0 1 18.69613,18.17195" />
    <path
       style="fill:#000000;fill-opacity:0;stroke:#000000;stroke-width:1;stroke-miterlimit:4;stroke-dasharray:none;stroke-dashoffset:0;stroke-opacity:1"
       id="path4791"
       sodipodi:type="arc"
       sodipodi:cx="105.3084"
       sodipodi:cy="218.98636"
       sodipodi:rx="8.3337584"
       sodipodi:ry="8.0812206"
       sodipodi:start="0"
       sodipodi:end="6.2825919"
       sodipodi:open="true"
       d="m 113.64216,218.98636 a 8.3337584,8.0812206 0 0 1 -8.33252,8.08122 8.3337584,8.0812206 0 0 1 -8.334995,-8.07882 8.3337584,8.0812206 0 0 1 8.330045,-8.08362 8.3337584,8.0812206 0 0 1 8.33747,8.07642" />
    <path
       style="fill:#000000;fill-opacity:0;stroke:#000000;stroke-width:1;stroke-miterlimit:4;stroke-dasharray:none;stroke-dashoffset:0;stroke-opacity:1"
       id="path4789-3"
       sodipodi:type="arc"
       sodipodi:cx="271.73105"
       sodipodi:cy="207.3696"
       sodipodi:rx="18.687822"
       sodipodi:ry="18.182745"
       sodipodi:start="0"
       sodipodi:end="6.2825919"
       sodipodi:open="true"
       d="m 290.41887,207.3696 a 18.687822,18.182745 0 0 1 -18.68505,18.18274 18.687822,18.182745 0 0 1 -18.69059,-18.17735 18.687822,18.182745 0 0 1 18.6795,-18.18813 18.687822,18.182745 0 0 1 18.69614,18.17195" />
    <path
       style="fill:#000000;fill-opacity:0;stroke:#000000;stroke-width:1;stroke-miterlimit:4;stroke-dasharray:none;stroke-dashoffset:0;stroke-opacity:1"
       id="path4791-6"
       sodipodi:type="arc"
       sodipodi:cx="271.47849"
       sodipodi:cy="207.3696"
       sodipodi:rx="8.3337584"
       sodipodi:ry="8.0812206"
       sodipodi:start="0"
       sodipodi:end="6.2825919"
       sodipodi:open="true"
       d="m 279.81224,207.3696 a 8.3337584,8.0812206 0 0 1 -8.33252,8.08122 8.3337584,8.0812206 0 0 1 -8.33499,-8.07882 8.3337584,8.0812206 0 0 1 8.33005,-8.08362 8.3337584,8.0812206 0 0 1 8.33746,8.07642" />
    <path
       style="fill:#000000;fill-opacity:0;stroke:#000000;stroke-width:1;stroke-miterlimit:4;stroke-dasharray:none;stroke-dashoffset:0;stroke-opacity:1"
       id="path4815"
       sodipodi:type="arc"
       sodipodi:cx="150.26019"
       sodipodi:cy="296.26303"
       sodipodi:rx="5.3033009"
       sodipodi:ry="10.101525"
       sodipodi:start="0"
       sodipodi:end="6.2825919"
       sodipodi:open="true"
       d="m 155.56349,296.26303 a 5.3033009,10.101525 0 0 1 -5.30251,10.10153 5.3033009,10.101525 0 0 1 -5.30409,-10.09853 5.3033009,10.101525 0 0 1 5.30094,-10.10452 5.3033009,10.101525 0 0 1 5.30566,10.09553" />
    <path
       style="fill:none;fill-rule:evenodd;stroke:#000000;stroke-width:1px;stroke-linecap:butt;stroke-linejoin:miter;stroke-opacity:1"
       d="m 149.26273,286.01356 75.76144,-1.01015 0,0"
       id="path4819"
       inkscape:connector-curvature="0" />
    <path
       style="fill:none;fill-rule:evenodd;stroke:#000000;stroke-width:1px;stroke-linecap:butt;stroke-linejoin:miter;stroke-opacity:1"
       d="m 149.58924,306.15534 74.24621,-0.50508"
       id="path4821"
       inkscape:connector-curvature="0" />
    <path
       style="fill:none;fill-rule:evenodd;stroke:#000000;stroke-width:0.96102941px;stroke-linecap:butt;stroke-linejoin:miter;stroke-opacity:1"
       d="m 223.43801,284.98651 c 4.48302,2.88439 12.014,12.33472 0,21.00634"
       id="path4823"
       inkscape:connector-curvature="0"
       sodipodi:nodetypes="cc" />
    <flowRoot
       xml:space="preserve"
       id="flowRoot4825"
       style="font-style:normal;font-weight:normal;font-size:20px;line-height:125%;font-family:sans-serif;letter-spacing:0px;word-spacing:0px;fill:#000000;fill-opacity:1;stroke:none;stroke-width:1px;stroke-linecap:butt;stroke-linejoin:miter;stroke-opacity:1"
       transform="translate(23.257086,-9.4642857)"><flowRegion
         id="flowRegion4827"><rect
           id="rect4829"
           width="182.14287"
           height="30.892855"
           x="139.28572"
           y="320.39792" /></flowRegion><flowPara
         id="flowPara4831">$S^{1} x [0,1]$  </flowPara></flowRoot>    <text
       xml:space="preserve"
       style="font-style:normal;font-weight:normal;font-size:20px;line-height:125%;font-family:sans-serif;letter-spacing:0px;word-spacing:0px;fill:#000000;fill-opacity:1;stroke:none;stroke-width:1px;stroke-linecap:butt;stroke-linejoin:miter;stroke-opacity:1"
       x="205.71429"
       y="271.29077"
       id="text4837"
       sodipodi:linespacing="125%"><tspan
         sodipodi:role="line"
         id="tspan4839"
         x="205.71429"
         y="271.29077" /></text>
    <path
       style="fill:none;fill-rule:evenodd;stroke:#000000;stroke-width:1px;stroke-linecap:butt;stroke-linejoin:miter;stroke-opacity:1"
       d="m 185.03649,49.489936 c 7.29964,8.02592 5.96983,13.111664 -0.17857,18.447975"
       id="path4843"
       inkscape:connector-curvature="0"
       sodipodi:nodetypes="cc" />
    <flowRoot
       xml:space="preserve"
       id="flowRoot4845"
       style="font-style:normal;font-weight:normal;font-size:20px;line-height:125%;font-family:sans-serif;letter-spacing:0px;word-spacing:0px;fill:#000000;fill-opacity:1;stroke:none;stroke-width:1px;stroke-linecap:butt;stroke-linejoin:miter;stroke-opacity:1"
       transform="translate(-17.677669,-55.55839)"><flowRegion
         id="flowRegion4847"><rect
           id="rect4849"
           width="88.388344"
           height="32.829956"
           x="89.398499"
           y="113.93049" /></flowRegion><flowPara
         id="flowPara4851">$X_{1}$</flowPara></flowRoot>    <flowRoot
       xml:space="preserve"
       id="flowRoot4853"
       style="font-style:normal;font-weight:normal;font-size:20px;line-height:125%;font-family:sans-serif;letter-spacing:0px;word-spacing:0px;fill:#000000;fill-opacity:1;stroke:none;stroke-width:1px;stroke-linecap:butt;stroke-linejoin:miter;stroke-opacity:1"
       transform="translate(30.809652,-72.730983)"><flowRegion
         id="flowRegion4855"><rect
           id="rect4857"
           width="95.459419"
           height="29.294422"
           x="233.85031"
           y="132.61832" /></flowRegion><flowPara
         id="flowPara4859">$X_{2}$</flowPara></flowRoot>  </g>
</svg>
