<?xml version="1.0" encoding="UTF-8" standalone="no"?>
<!-- Created with Inkscape (http://www.inkscape.org/) -->

<svg
   xmlns:dc="http://purl.org/dc/elements/1.1/"
   xmlns:cc="http://creativecommons.org/ns#"
   xmlns:rdf="http://www.w3.org/1999/02/22-rdf-syntax-ns#"
   xmlns:svg="http://www.w3.org/2000/svg"
   xmlns="http://www.w3.org/2000/svg"
   xmlns:sodipodi="http://sodipodi.sourceforge.net/DTD/sodipodi-0.dtd"
   xmlns:inkscape="http://www.inkscape.org/namespaces/inkscape"
   width="210mm"
   height="297mm"
   viewBox="0 0 744.09448819 1052.3622047"
   id="svg4912"
   version="1.1"
   inkscape:version="0.91 r13725"
   sodipodi:docname="figura60.svg">
  <defs
     id="defs4914" />
  <sodipodi:namedview
     id="base"
     pagecolor="#ffffff"
     bordercolor="#666666"
     borderopacity="1.0"
     inkscape:pageopacity="0.0"
     inkscape:pageshadow="2"
     inkscape:zoom="2.8"
     inkscape:cx="76.036789"
     inkscape:cy="859.98164"
     inkscape:document-units="px"
     inkscape:current-layer="layer1"
     showgrid="false"
     inkscape:window-width="1855"
     inkscape:window-height="1056"
     inkscape:window-x="65"
     inkscape:window-y="24"
     inkscape:window-maximized="1" />
  <metadata
     id="metadata4917">
    <rdf:RDF>
      <cc:Work
         rdf:about="">
        <dc:format>image/svg+xml</dc:format>
        <dc:type
           rdf:resource="http://purl.org/dc/dcmitype/StillImage" />
        <dc:title></dc:title>
      </cc:Work>
    </rdf:RDF>
  </metadata>
  <g
     inkscape:label="Livello 1"
     inkscape:groupmode="layer"
     id="layer1">
    <path
       style="fill:#000000;fill-opacity:0;stroke:#000000;stroke-width:1;stroke-miterlimit:4;stroke-dasharray:none;stroke-dashoffset:0;stroke-opacity:1"
       id="path5460"
       sodipodi:type="arc"
       sodipodi:cx="79.448738"
       sodipodi:cy="157.01715"
       sodipodi:rx="20.000002"
       sodipodi:ry="67.5"
       sodipodi:start="0"
       sodipodi:end="6.2825919"
       sodipodi:open="true"
       d="m 99.44874,157.01715 a 20.000002,67.5 0 0 1 -19.997035,67.5 20.000002,67.5 0 0 1 -20.002968,-67.47997 20.000002,67.5 0 0 1 19.9911,-67.520022 20.000002,67.5 0 0 1 20.008899,67.459942"
       transform="matrix(0.99965059,-0.02643308,0.02643308,0.99965059,0,0)" />
    <path
       style="fill:none;fill-rule:evenodd;stroke:#000000;stroke-width:0.98109102px;stroke-linecap:butt;stroke-linejoin:miter;stroke-opacity:1"
       d="m 85.174879,222.49505 184.650181,11.8594 1.42863,0.34374"
       id="path5462"
       inkscape:connector-curvature="0"
       sodipodi:nodetypes="ccc" />
    <path
       style="fill:none;fill-rule:evenodd;stroke:#000000;stroke-width:1px;stroke-linecap:butt;stroke-linejoin:miter;stroke-opacity:1"
       d="M 81.428572,87.00506 272.14286,63.076489"
       id="path5464"
       inkscape:connector-curvature="0" />
    <path
       style="fill:none;fill-rule:evenodd;stroke:#000000;stroke-width:1.05542755px;stroke-linecap:butt;stroke-linejoin:miter;stroke-opacity:1"
       d="m 273.92757,107.3862 c -19.15564,5.97667 -56.34565,-1.4142 -57.46691,17.93002 -1.06037,13.0511 -1.17348,26.10221 1.55316,39.15331 -1.34776,11.72736 32.04936,11.42765 53.19572,15.36859"
       id="path5466"
       inkscape:connector-curvature="0"
       sodipodi:nodetypes="cccc" />
    <path
       style="fill:#000000;fill-opacity:0;stroke:#000000;stroke-width:1;stroke-miterlimit:4;stroke-dasharray:none;stroke-dashoffset:0;stroke-opacity:1"
       id="path5468"
       sodipodi:type="arc"
       sodipodi:cx="272.5"
       sodipodi:cy="85.755066"
       sodipodi:rx="9.2857141"
       sodipodi:ry="22.321428"
       sodipodi:start="0"
       sodipodi:end="6.2825919"
       sodipodi:open="true"
       d="m 281.78571,85.755066 a 9.2857141,22.321428 0 0 1 -9.28433,22.321424 9.2857141,22.321428 0 0 1 -9.28709,-22.314801 9.2857141,22.321428 0 0 1 9.28158,-22.328049 9.2857141,22.321428 0 0 1 9.28984,22.30818" />
    <path
       style="fill:#000000;fill-opacity:0;stroke:#000000;stroke-width:1;stroke-miterlimit:4;stroke-dasharray:none;stroke-dashoffset:0;stroke-opacity:1"
       id="path5470"
       sodipodi:type="arc"
       sodipodi:cx="271.60715"
       sodipodi:cy="207.00507"
       sodipodi:rx="6.25"
       sodipodi:ry="27.5"
       sodipodi:start="0"
       sodipodi:end="6.2825919"
       sodipodi:open="true"
       d="m 277.85715,207.00507 a 6.25,27.5 0 0 1 -6.24908,27.5 6.25,27.5 0 0 1 -6.25092,-27.49184 6.25,27.5 0 0 1 6.24722,-27.50816 6.25,27.5 0 0 1 6.25278,27.48368" />
    <path
       style="fill:none;fill-rule:evenodd;stroke:#000000;stroke-width:1px;stroke-linecap:butt;stroke-linejoin:miter;stroke-opacity:1"
       d="m 142.14286,80.219346 c 9.66381,48.452384 9.13905,96.904764 0.71428,145.357144 l 0,0"
       id="path5472"
       inkscape:connector-curvature="0"
       sodipodi:nodetypes="ccc" />
    <path
       style="fill:none;fill-rule:evenodd;stroke:#000000;stroke-width:1px;stroke-linecap:butt;stroke-linejoin:miter;stroke-opacity:1"
       d="m 188.21429,73.790775 c 8.89223,62.072215 5.10483,109.879835 -1.07143,154.999995"
       id="path5474"
       inkscape:connector-curvature="0"
       sodipodi:nodetypes="cc" />
    <path
       style="fill:#000000;fill-opacity:0;stroke:#000000;stroke-width:1;stroke-miterlimit:4;stroke-dasharray:none;stroke-dashoffset:0;stroke-opacity:1"
       id="path5476"
       sodipodi:type="arc"
       sodipodi:cx="123.03571"
       sodipodi:cy="108.79077"
       sodipodi:rx="8.0357141"
       sodipodi:ry="8.5714283"
       sodipodi:start="0"
       sodipodi:end="6.2825919"
       sodipodi:open="true"
       d="m 131.07143,108.79077 a 8.0357141,8.5714283 0 0 1 -8.03452,8.57143 8.0357141,8.5714283 0 0 1 -8.03691,-8.56889 8.0357141,8.5714283 0 0 1 8.03214,-8.57397 8.0357141,8.5714283 0 0 1 8.03929,8.56635" />
    <path
       style="fill:#000000;fill-opacity:0;stroke:#000000;stroke-width:1;stroke-miterlimit:4;stroke-dasharray:none;stroke-dashoffset:0;stroke-opacity:1"
       id="path5476-7"
       sodipodi:type="arc"
       sodipodi:cx="120.71429"
       sodipodi:cy="199.14792"
       sodipodi:rx="8.0357141"
       sodipodi:ry="8.5714283"
       sodipodi:start="0"
       sodipodi:end="6.2825919"
       sodipodi:open="true"
       d="m 128.75,199.14792 a 8.0357141,8.5714283 0 0 1 -8.03452,8.57143 8.0357141,8.5714283 0 0 1 -8.03691,-8.56889 8.0357141,8.5714283 0 0 1 8.03214,-8.57397 8.0357141,8.5714283 0 0 1 8.03929,8.56634" />
    <path
       style="fill:#000000;fill-opacity:0;stroke:#000000;stroke-width:1;stroke-miterlimit:4;stroke-dasharray:none;stroke-dashoffset:0;stroke-opacity:1"
       id="path5493"
       sodipodi:type="arc"
       sodipodi:cx="122.6704"
       sodipodi:cy="108.87972"
       sodipodi:rx="0.44194174"
       sodipodi:ry="0.50507629"
       sodipodi:start="0"
       sodipodi:end="6.2825919"
       sodipodi:open="true"
       d="m 123.11234,108.87972 a 0.44194174,0.50507629 0 0 1 -0.44187,0.50508 0.44194174,0.50507629 0 0 1 -0.44201,-0.50493 0.44194174,0.50507629 0 0 1 0.44175,-0.50522 0.44194174,0.50507629 0 0 1 0.44213,0.50477" />
    <path
       style="fill:#000000;fill-opacity:0;stroke:#000000;stroke-width:1;stroke-miterlimit:4;stroke-dasharray:none;stroke-dashoffset:0;stroke-opacity:1"
       id="path5493-5"
       sodipodi:type="arc"
       sodipodi:cx="120.4607"
       sodipodi:cy="199.41464"
       sodipodi:rx="0.44194174"
       sodipodi:ry="0.50507629"
       sodipodi:start="0"
       sodipodi:end="6.2825919"
       sodipodi:open="true"
       d="m 120.90264,199.41464 a 0.44194174,0.50507629 0 0 1 -0.44187,0.50508 0.44194174,0.50507629 0 0 1 -0.44201,-0.50493 0.44194174,0.50507629 0 0 1 0.44174,-0.50522 0.44194174,0.50507629 0 0 1 0.44214,0.50477" />
  </g>
</svg>
