<?xml version="1.0" encoding="UTF-8" standalone="no"?>
<!-- Created with Inkscape (http://www.inkscape.org/) -->

<svg
   xmlns:dc="http://purl.org/dc/elements/1.1/"
   xmlns:cc="http://creativecommons.org/ns#"
   xmlns:rdf="http://www.w3.org/1999/02/22-rdf-syntax-ns#"
   xmlns:svg="http://www.w3.org/2000/svg"
   xmlns="http://www.w3.org/2000/svg"
   xmlns:sodipodi="http://sodipodi.sourceforge.net/DTD/sodipodi-0.dtd"
   xmlns:inkscape="http://www.inkscape.org/namespaces/inkscape"
   width="210mm"
   height="297mm"
   viewBox="0 0 744.09448819 1052.3622047"
   id="svg4334"
   version="1.1"
   inkscape:version="0.91 r13725"
   sodipodi:docname="figura57.svg">
  <defs
     id="defs4336" />
  <sodipodi:namedview
     id="base"
     pagecolor="#ffffff"
     bordercolor="#666666"
     borderopacity="1.0"
     inkscape:pageopacity="0.0"
     inkscape:pageshadow="2"
     inkscape:zoom="2.8"
     inkscape:cx="98.408859"
     inkscape:cy="1016.5429"
     inkscape:document-units="px"
     inkscape:current-layer="layer1"
     showgrid="false"
     inkscape:window-width="1855"
     inkscape:window-height="1056"
     inkscape:window-x="65"
     inkscape:window-y="24"
     inkscape:window-maximized="1" />
  <metadata
     id="metadata4339">
    <rdf:RDF>
      <cc:Work
         rdf:about="">
        <dc:format>image/svg+xml</dc:format>
        <dc:type
           rdf:resource="http://purl.org/dc/dcmitype/StillImage" />
        <dc:title></dc:title>
      </cc:Work>
    </rdf:RDF>
  </metadata>
  <g
     inkscape:label="Livello 1"
     inkscape:groupmode="layer"
     id="layer1">
    <path
       style="fill:none;stroke:#000000;stroke-width:0.91996133px;stroke-linecap:butt;stroke-linejoin:miter;stroke-opacity:1"
       d="m 234.77676,22.161615 c -12.77606,-1.87988 -18.03291,-1.33382 -25.66474,-0.0863 -33.48299,5.47318 -29.60453,22.32712 -50.99389,30.72488 -9.19572,3.61038 -23.77982,4.20292 -50.59413,-4.72104 -19.386436,-6.45193 -37.997496,-4.72106 -48.887809,-1.53485 -12.42517,3.63528 -25.91236,13.10158 -33.82599,26.31675 -12.16809,20.31977 -2.66755,64.773695 37.88631,72.026305 21.306643,3.81045 40.292809,1.85881 51.216089,-6.39055 7.82606,-5.91031 12.42375,-12.72455 22.65083,-24.81597 4.99102,-5.90087 17.87836,-13.28088 25.258,-15.432055 15.07294,-4.39376 41.06236,-9.63093 56.51248,-10.34772 12.17254,-0.56471 31.79654,-4.49465 36.63552,-7.29073 17.99522,-10.39805 17.91581,-27.99935 15.28357,-35.02106 -6.36304,-16.9739 -25.63625,-21.11891 -35.47624,-23.42765 z"
       id="path2991"
       inkscape:connector-curvature="0"
       sodipodi:nodetypes="cssssssssssssc" />
    <ellipse
       style="fill:#ffffff;fill-opacity:1;stroke:#000000;stroke-width:0.95932186;stroke-opacity:1"
       id="path2993"
       transform="matrix(0.97450163,-0.22438041,0.43479045,0.90053166,0,0)"
       inkscape:transform-center-x="199.61814"
       inkscape:transform-center-y="32.003693"
       cx="179.1967"
       cy="90.866646"
       rx="22.224653"
       ry="6.6550012" />
    <ellipse
       style="fill:#ffffff;fill-opacity:1;stroke:#000000;stroke-width:1.00620961;stroke-linecap:round;stroke-miterlimit:4;stroke-dasharray:none;stroke-dashoffset:0;stroke-opacity:1"
       id="path3763"
       transform="matrix(0.98657158,-0.16332946,0.23352681,0.97235036,0,0)"
       cx="53.604446"
       cy="82.725632"
       rx="24.010744"
       ry="10.885936" />
    <path
       style="fill:none;fill-rule:evenodd;stroke:#000000;stroke-width:1px;stroke-linecap:butt;stroke-linejoin:miter;stroke-opacity:1"
       d="m 156.42857,53.433635 c 18.16527,5.45752 30.28767,15.95075 25.71429,40.35714"
       id="path4935"
       inkscape:connector-curvature="0"
       sodipodi:nodetypes="cc" />
    <path
       style="fill:none;fill-rule:evenodd;stroke:#000000;stroke-width:1;stroke-linecap:butt;stroke-linejoin:miter;stroke-miterlimit:4;stroke-dasharray:4, 4;stroke-dashoffset:0;stroke-opacity:1"
       d="m 156.07143,52.719345 c -3.44658,22.85807 8.31254,33.96628 25.71428,40.71429"
       id="path4937"
       inkscape:connector-curvature="0"
       sodipodi:nodetypes="cc" />
    <path
       style="fill:none;fill-rule:evenodd;stroke:#000000;stroke-width:1px;stroke-linecap:butt;stroke-linejoin:miter;stroke-opacity:1"
       d="m 106.78571,89.505065 86.78572,-27.85715 c 16.99041,-4.34652 21.42236,-1.71613 30.71428,-1.78571 7.73055,0.72816 11.11657,6.65492 -1.78571,12.14286 l -16.07143,6.07142 -69.28571,20.71429 c -12.81808,3.571695 -14.87712,2.532365 -21.78572,3.571425 -19.356246,-0.15621 -15.802946,-10.172305 -8.57143,-12.857135 z"
       id="path4939"
       inkscape:connector-curvature="0"
       sodipodi:nodetypes="cccccccc" />
  </g>
</svg>
