<?xml version="1.0" encoding="UTF-8" standalone="no"?>
<svg
   xmlns:dc="http://purl.org/dc/elements/1.1/"
   xmlns:cc="http://creativecommons.org/ns#"
   xmlns:rdf="http://www.w3.org/1999/02/22-rdf-syntax-ns#"
   xmlns:svg="http://www.w3.org/2000/svg"
   xmlns="http://www.w3.org/2000/svg"
   xmlns:sodipodi="http://sodipodi.sourceforge.net/DTD/sodipodi-0.dtd"
   xmlns:inkscape="http://www.inkscape.org/namespaces/inkscape"
   xml:space="preserve"
   style="enable-background:new 0 0 595.3 841.9;"
   viewBox="0 0 595.3 841.9"
   y="0px"
   x="0px"
   id="Livello_1"
   version="1.1"
   inkscape:version="0.91 r13725"
   sodipodi:docname="figura5.svg"><sodipodi:namedview
     pagecolor="#ffffff"
     bordercolor="#666666"
     borderopacity="1"
     objecttolerance="10"
     gridtolerance="10"
     guidetolerance="10"
     inkscape:pageopacity="0"
     inkscape:pageshadow="2"
     inkscape:window-width="1239"
     inkscape:window-height="754"
     id="namedview53"
     showgrid="false"
     inkscape:zoom="4.4482285"
     inkscape:cx="152.68208"
     inkscape:cy="764.40304"
     inkscape:window-x="40"
     inkscape:window-y="0"
     inkscape:window-maximized="0"
     inkscape:current-layer="Livello_1" /><metadata
     id="metadata103"><rdf:RDF><cc:Work
         rdf:about=""><dc:format>image/svg+xml</dc:format><dc:type
           rdf:resource="http://purl.org/dc/dcmitype/StillImage" /><dc:title></dc:title></cc:Work></rdf:RDF></metadata><defs
     id="defs101" /><style
     id="style3"
     type="text/css">
	.st0{fill:none;stroke:#000000;stroke-miterlimit:10;}
	.st1{fill:none;stroke:#000000;stroke-width:0.75;stroke-miterlimit:10;}
	.st2{font-family:'MyriadPro-Regular';}
	.st3{font-size:9.9774px;}
	.st4{fill:none;}
	.st5{font-size:8.9784px;}
</style><ellipse
     id="ellipse5"
     ry="46.1"
     rx="31.9"
     cy="72"
     cx="341.9"
     class="st0" /><ellipse
     id="ellipse7"
     ry="46.1"
     rx="31.9"
     cy="70.7"
     cx="239.6"
     class="st0" /><g
     id="g9"><g
       id="g11"><line
         id="line13"
         y2="71.7"
         x2="298.9"
         y1="71.7"
         x1="281"
         class="st1" /><g
         id="g15"><polygon
           id="polygon17"
           points="304.2,71.7 296.8,74.7 298.5,71.7 296.8,68.6    " /></g></g></g><g
     id="g19"><g
       id="g21"><line
         id="line23"
         y2="70.7"
         x2="192.1"
         y1="70.7"
         x1="174.1"
         class="st1" /><g
         id="g25"><polygon
           id="polygon27"
           points="197.4,70.7 189.9,73.8 191.7,70.7 189.9,67.7    " /></g></g></g><g
     id="g29"
     transform="translate(0.25,0)"><g
       id="g31"><line
         id="line33"
         y2="121.2"
         x2="164"
         y1="17.799999"
         x1="164"
         class="st1"
         style="fill:none;stroke:#000000;stroke-width:0.75;stroke-miterlimit:10" /><g
         id="g35"><polygon
           id="polygon37"
           points="161,19.9 164,18.2 167,19.9 164,12.5 " /></g></g></g><text
     id="text39"
     class="st2 st3"
     transform="matrix(1.0112,0,0,1,366.7339,32.8363)"
     style="font-size:9.97739983px;font-family:MyriadPro-Regular">$W$</text>
<text
     id="text41"
     class="st2 st3"
     transform="matrix(1.0112,0,0,1,265.0125,32.8366)"
     style="font-size:9.97739983px;font-family:MyriadPro-Regular">$f(U')$</text>
<text
     id="text45"
     class="st2 st3"
     transform="scale(1.0055844,0.99444661)"
     x="169.21123"
     y="27.306328"
     style="font-size:10.03311729px;font-family:MyriadPro-Regular">$\R^n$</text>
<line
     id="line47"
     y2="48.289734"
     x2="166.89923"
     y1="48.289734"
     x1="161.20078"
     class="st4"
     style="fill:none" /><line
     id="line49"
     y2="65.300003"
     x2="167.39999"
     y1="65.599998"
     x1="161.10001"
     class="st4"
     style="fill:none" /><line
     id="line51"
     y2="67.3"
     x2="173"
     y1="67.3"
     x1="172.9"
     class="st4" /><line
     id="line53"
     y2="62.808128"
     x2="167.09924"
     y1="62.808128"
     x1="161.40076"
     class="st1"
     style="fill:none;stroke:#000000;stroke-width:0.75;stroke-miterlimit:10" /><line
     id="line55"
     y2="81.541534"
     x2="167.09924"
     y1="81.541534"
     x1="161.40076"
     class="st1"
     style="fill:none;stroke:#000000;stroke-width:0.75;stroke-miterlimit:10" /><line
     id="line57"
     y2="72.174835"
     x2="167.02617"
     y1="72.174835"
     x1="161.47383"
     class="st1"
     style="fill:none;stroke:#000000;stroke-width:0.75;stroke-miterlimit:10" /><line
     id="line59"
     y2="90.439919"
     x2="167.09924"
     y1="90.439919"
     x1="161.40076"
     class="st1"
     style="fill:none;stroke:#000000;stroke-width:0.75;stroke-miterlimit:10" /><line
     id="line61"
     y2="52.973091"
     x2="167.02617"
     y1="52.973091"
     x1="161.47383"
     class="st1"
     style="fill:none;stroke:#000000;stroke-width:0.75;stroke-miterlimit:10" /><text
     id="text63"
     class="st2 st3"
     transform="matrix(1.0112 0 0 1 285.6272 67.2805)">$\psi$</text>
<text
     id="text65"
     class="st2 st3"
     transform="scale(1.0055844,0.99444661)"
     x="177.86781"
     y="66.333755"
     style="font-size:10.03311729px;font-family:MyriadPro-Regular">$f$</text>
<path
     id="path67"
     d="M207.7,69.9c0.7-2.3,3.1-3.7,5.3-4.5c4.3-1.5,10.9-2.1,15,0.2c3.4,1.9,6.5,4.1,9.4,6.7c1.6,1.5,2.9,3.3,5,4.1  c2.5,0.9,5.2,1.4,7.8,1c7.9-1,13.1-9.9,21.1-10.7"
     class="st0" /><path
     id="path69"
     d="M208.3,61.3c0.7-2.3,3-3.7,5.2-4.5c4.2-1.5,10.7-2.1,14.7,0.2c3.3,1.9,6.4,4.1,9.2,6.7c1.6,1.5,2.8,3.3,4.9,4.1  c2.4,0.9,5.1,1.4,7.7,1c7.7-1,12.9-9.9,20.6-10.7"
     class="st0" /><path
     id="path71"
     d="M208,77.6c0.7-2.3,3.1-3.7,5.3-4.5c4.3-1.5,10.9-2.1,15,0.2c3.4,1.9,6.5,4.1,9.4,6.7c1.6,1.5,2.9,3.3,5,4.1  c2.5,0.9,5.2,1.4,7.8,1c7.9-1,13.1-9.9,21.1-10.7"
     class="st0" /><path
     id="path73"
     d="M209.6,86.3c0.7-2.3,2.9-3.7,5.1-4.5c4.1-1.5,10.4-2.1,14.3,0.2c3.2,1.9,6.2,4.1,9,6.7c1.6,1.5,2.8,3.3,4.8,4.1  c2.3,0.9,5,1.4,7.5,1c7.5-1,12.5-9.9,20.1-10.7"
     class="st0" /><line
     id="line75"
     y2="74.3"
     x2="309.9"
     y1="74.3"
     x1="373.8"
     class="st0" /><line
     id="line77"
     y2="65.7"
     x2="310.4"
     y1="65.7"
     x1="373.3"
     class="st0" /><line
     id="line79"
     y2="82.9"
     x2="310.4"
     y1="82.9"
     x1="373.3"
     class="st0" /><line
     id="line81"
     y2="90.7"
     x2="312.3"
     y1="90.7"
     x1="371.4"
     class="st0" /><line
     id="line83"
     y2="58"
     x2="311.4"
     y1="58"
     x1="372.8"
     class="st0" /><path
     id="path85"
     d="M210.2,52.7c0.6-2.3,2.8-3.7,4.9-4.5c3.9-1.5,9.9-2.1,13.6,0.2c3.1,1.9,6,4.1,8.6,6.7c1.5,1.5,2.6,3.3,4.5,4.1  c2.2,0.9,4.7,1.4,7.1,1c7.2-1,12-9.9,19.2-10.7"
     class="st0" /><g
     id="g87"><g
       id="g89"><path
         id="path91"
         d="M170.2,114c34,29.5,91.4,21.5,130.3-17.5"
         class="st1" /><g
         id="g93"><polygon
           id="polygon95"
           points="304.2,92.7 301.2,100.2 300.3,96.8 296.8,95.9    " /></g></g></g><text
     id="text97"
     class="st2 st5"
     transform="matrix(1.0417 0 0 1 237.2129 140.6264)">$j$</text>
<path
     style="fill:none;fill-rule:evenodd;stroke:#000000;stroke-width:0.75;stroke-linecap:butt;stroke-linejoin:miter;stroke-miterlimit:4;stroke-dasharray:none;stroke-opacity:1"
     d="m 153.521,46.255852 c 0,0 9.89158,-11.465239 21.35681,0"
     id="path4238"
     inkscape:connector-curvature="0" /><path
     inkscape:connector-curvature="0"
     id="path4240"
     d="m 174.85904,97.37912 c 0,0 -9.89158,11.46524 -21.35681,0"
     style="fill:none;fill-rule:evenodd;stroke:#000000;stroke-width:0.75;stroke-linecap:butt;stroke-linejoin:miter;stroke-miterlimit:4;stroke-dasharray:none;stroke-opacity:1" /><text
     transform="scale(1.0055844,0.99444661)"
     class="st2 st3"
     id="text4242"
     x="155.35049"
     y="40.644104"
     style="font-style:normal;font-variant:normal;font-weight:normal;font-stretch:normal;font-size:10.03312492px;line-height:125%;font-family:MyriadPro-Regular;-inkscape-font-specification:'MyriadPro-Regular, Normal';text-align:end;writing-mode:lr-tb;text-anchor:end"
     sodipodi:linespacing="125%">$U$</text>
</svg>