<?xml version="1.0" encoding="UTF-8" standalone="no"?>
<!-- Created with Inkscape (http://www.inkscape.org/) -->

<svg
   xmlns:dc="http://purl.org/dc/elements/1.1/"
   xmlns:cc="http://creativecommons.org/ns#"
   xmlns:rdf="http://www.w3.org/1999/02/22-rdf-syntax-ns#"
   xmlns:svg="http://www.w3.org/2000/svg"
   xmlns="http://www.w3.org/2000/svg"
   xmlns:sodipodi="http://sodipodi.sourceforge.net/DTD/sodipodi-0.dtd"
   xmlns:inkscape="http://www.inkscape.org/namespaces/inkscape"
   width="210mm"
   height="297mm"
   id="svg8027"
   version="1.1"
   inkscape:version="0.48.5 r10040"
   sodipodi:docname="Nuovo documento 18">
  <defs
     id="defs3">
    <inkscape:path-effect
       effect="spiro"
       id="path-effect8035"
       is_visible="true" />
  </defs>
  <sodipodi:namedview
     inkscape:document-units="mm"
     id="base"
     pagecolor="#ffffff"
     bordercolor="#666666"
     borderopacity="1.0"
     inkscape:pageopacity="0.0"
     inkscape:pageshadow="2"
     inkscape:zoom="0.98994949"
     inkscape:cx="375.63185"
     inkscape:cy="764.72789"
     inkscape:current-layer="layer1"
     showgrid="false"
     inkscape:window-width="1920"
     inkscape:window-height="1014"
     inkscape:window-x="0"
     inkscape:window-y="27"
     inkscape:window-maximized="1" />
  <metadata
     id="metadata4">
    <rdf:RDF>
      <cc:Work
         rdf:about="">
        <dc:format>image/svg+xml</dc:format>
        <dc:type
           rdf:resource="http://purl.org/dc/dcmitype/StillImage" />
        <dc:title></dc:title>
      </cc:Work>
    </rdf:RDF>
  </metadata>
  <g
     inkscape:label="Layer 1"
     inkscape:groupmode="layer"
     id="layer1">
    <path
       style="fill:none;stroke:#000000;stroke-width:1px;stroke-linecap:butt;stroke-linejoin:miter;stroke-opacity:1"
       d="m 189.90868,105.84925 c 0.67343,-1.34687 0.67343,-4.71405 2.0203,-4.04061 1.34687,0.67343 -3.0851,5.1054 -2.0203,4.04061 1.38832,-1.38832 1.80394,-3.51762 3.03046,-5.05077 0.42069,-0.52586 1.41796,0.30117 2.0203,0 0.85184,-0.42591 1.16847,-1.594382 2.02031,-2.0203 0.30117,-0.150585 0.77205,0.238095 1.01015,0 0.5324,-0.532397 0.5925,-1.393835 1.01015,-2.020305 0.52829,-0.792429 1.59439,-1.16847 2.02031,-2.020305 0.15058,-0.30117 -0.2381,-0.772058 0,-1.010153 3.94235,-3.942357 0.5425,0.233826 3.03045,-1.010152 0.42592,-0.212959 0.67344,-0.673435 1.01016,-1.010153 0.33671,-0.336718 0.79719,-0.584235 1.01015,-1.010153 0.15058,-0.301169 -0.2381,-0.772057 0,-1.010152 0.5324,-0.532397 1.39383,-0.592506 2.0203,-1.010153 1.16556,-0.77704 1.8649,-2.253417 3.03046,-3.030457 0.62647,-0.417647 1.39384,-0.592506 2.02031,-1.010153 0.39621,-0.264143 0.58423,-0.797194 1.01015,-1.010152 0.30117,-0.150585 0.70898,0.150584 1.01015,0 4.62307,-2.311536 -4.2865,0.41868 3.03046,-2.020305 0.31944,-0.10648 0.70898,0.150584 1.01015,0 0.85184,-0.425918 1.16847,-1.594388 2.02031,-2.020306 0.80812,-0.404061 2.22233,0.404061 3.03046,0 0.42591,-0.212958 0.58423,-0.797193 1.01015,-1.010152 0.30117,-0.150585 0.69071,0.106479 1.01015,0 0.71429,-0.238095 1.30602,-0.772057 2.02031,-1.010153 0.63644,-0.212148 5.28975,0 6.06091,0 4.71405,0 9.42809,0 14.14214,0 2.69374,0 5.38748,0 8.08122,0 0.52823,0 3.775,-0.132805 4.04061,0 0.42591,0.212959 0.58423,0.797194 1.01015,1.010153 0.30117,0.150585 0.70898,-0.150585 1.01015,0 0.42592,0.212959 0.58424,0.797194 1.01015,1.010152 0.80813,0.404061 2.22234,-0.404061 3.03046,0 0.30117,0.150585 -0.30117,0.859568 0,1.010153 0.60234,0.301169 1.41797,-0.301169 2.02031,0 0.30117,0.150585 -0.2381,0.772057 0,1.010153 0.23809,0.238095 0.70898,-0.150585 1.01015,0 0.42592,0.212958 0.58423,0.797193 1.01015,1.010152 0.30117,0.150585 0.70899,-0.150585 1.01015,0 0.85184,0.425918 1.16847,1.594387 2.02031,2.020305 0.30117,0.150585 0.70898,-0.150584 1.01015,0 0.26821,0.134103 2.89636,2.762251 3.03046,3.030458 0.15058,0.301169 -0.15058,0.708983 0,1.010152 0.21296,0.425918 0.67344,0.673435 1.01015,1.010153 0.67344,0.673435 1.2584,1.448876 2.02031,2.020305 0.60234,0.451754 1.39383,0.592506 2.0203,1.010153 2.00117,-0.100836 0.47776,1.487907 1.01016,2.020305 0.53239,0.532397 1.39383,0.592505 2.0203,1.010152 0.39621,0.264143 0.61394,0.74601 1.01015,1.010153 0.62647,0.417646 1.39384,0.592506 2.02031,1.010152 2.51269,1.675127 0.11605,0.232113 1.01015,2.020305 0.57903,1.158058 2.1077,1.405128 3.03046,2.020308 0.39621,0.26414 0.58423,0.79719 1.01015,1.01015 0.30117,0.15058 0.70898,-0.15058 1.01015,0 0.42592,0.21296 0.67344,0.67344 1.01016,1.01015 0.33671,0.33672 0.79719,0.58424 1.01015,1.01016 0.15058,0.30116 -0.15059,0.70898 0,1.01015 0.42592,0.85183 1.59439,1.16847 2.0203,2.0203 0.15059,0.30117 -0.15058,0.70899 0,1.01016 0.17986,0.35971 1.84045,1.66058 2.02031,2.0203 0.30117,0.60234 -0.30117,1.41797 0,2.02031 0.21296,0.42591 0.79719,0.58423 1.01015,1.01015 0.15059,0.30117 -0.23809,0.77206 0,1.01015 0.2381,0.2381 0.77206,-0.23809 1.01015,0 0.2381,0.2381 -0.15058,0.70898 0,1.01015 0.21296,0.42592 0.7972,0.58424 1.01016,1.01016 0.31745,0.6349 -0.31746,3.4057 0,4.04061 0.21296,0.42591 0.79719,0.58423 1.01015,1.01015 0.18265,0.3653 0,4.34816 0,5.05076 0,0.7026 0.18265,4.68546 0,5.05076 -0.21296,0.42592 -0.79719,0.58424 -1.01015,1.01016 -0.34888,0.69774 0.35458,4.69618 0,5.05076 -0.2381,0.23809 -0.77206,-0.2381 -1.01016,0 -0.47619,0.47619 0.30117,1.41797 0,2.0203 -0.42591,0.85184 -1.59438,1.16847 -2.0203,2.02031 -0.15059,0.30117 0,0.67343 0,1.01015 -0.33672,0.33672 -0.7972,0.58424 -1.01015,1.01015 -0.15059,0.30117 0.15058,0.70899 0,1.01016 -0.42592,0.85183 -1.71914,1.11679 -2.02031,2.0203 -0.21296,0.63888 0.21296,1.38143 0,2.02031 -0.30117,0.9035 -1.59439,1.16847 -2.0203,2.0203 -0.30117,0.60234 0.47619,1.54412 0,2.02031 -0.2381,0.23809 -0.77206,-0.2381 -1.01016,0 -0.23809,0.23809 0.15059,0.70898 0,1.01015 -0.21296,0.42592 -0.85956,0.5584 -1.01015,1.01015 -0.21296,0.63888 0.21296,1.38143 0,2.02031 -0.15058,0.45175 -0.67343,0.67343 -1.01015,1.01015 -1.01015,1.01015 -2.02031,2.02031 -3.03046,3.03046 -0.33672,0.33672 -0.74601,0.61394 -1.01015,1.01015 -0.41765,0.62647 -0.47776,1.48791 -1.01015,2.02031 -0.2381,0.23809 -0.77206,-0.2381 -1.01016,0 -0.23809,0.23809 0.15059,0.70898 0,1.01015 -0.21296,0.42592 -0.79719,0.58423 -1.01015,1.01015 -0.15058,0.30117 0.15058,0.70898 0,1.01015 -0.21296,0.42592 -0.79719,0.58424 -1.01015,1.01016 -0.15059,0.30116 0.15058,0.70898 0,1.01015 -0.42592,0.85183 -1.59439,1.16847 -2.02031,2.0203 -0.30117,0.60234 0.47619,1.54412 0,2.02031 -0.23809,0.23809 -0.77205,-0.2381 -1.01015,0 -0.2381,0.23809 0.2381,0.77206 0,1.01015 -0.2381,0.2381 -0.70898,-0.15058 -1.01015,0 -0.42592,0.21296 -0.5584,0.85957 -1.01015,1.01015 -0.63888,0.21296 -1.34687,0 -2.02031,0 -0.67344,0 -1.34687,0 -2.02031,0"
       id="path8072"
       inkscape:connector-curvature="0" />
    <path
       style="fill:none;stroke:#000000;stroke-width:1px;stroke-linecap:butt;stroke-linejoin:miter;stroke-opacity:1"
       d="m 205.06097,117.97108 c 14.2048,-10.48697 -12.56487,9.62892 5.05076,-5.05076 0.25867,-0.21557 0.77206,0.23809 1.01015,0 0.2381,-0.2381 -0.23809,-0.77206 0,-1.01016 0.47619,-0.47619 1.54412,0.47619 2.02031,0 0.23809,-0.23809 -0.2381,-0.77205 0,-1.01015 0.23809,-0.23809 0.77205,0.2381 1.01015,0 0.23809,-0.23809 -0.2381,-0.77206 0,-1.01015 0.23809,-0.2381 0.77206,0.23809 1.01015,0 0.2381,-0.2381 -0.30117,-0.85957 0,-1.01015 0.60234,-0.30117 1.38143,0.21295 2.02031,0 0.45175,-0.15059 0.58423,-0.7972 1.01015,-1.01016 0.60234,-0.30117 1.41797,0.30117 2.0203,0 0.42592,-0.21296 0.58424,-0.79719 1.01016,-1.01015 0.60234,-0.30117 1.54411,0.47619 2.0203,0 0.2381,-0.2381 -0.23809,-0.77206 0,-1.01015 0.2381,-0.2381 0.67344,0 1.01016,0 2.0203,0 4.04061,0 6.06091,0 0.33672,0 0.67344,0 1.01015,0 0.33672,0 0.70899,-0.15059 1.01016,0 0.42591,0.21296 0.55839,0.85957 1.01015,1.01015 0.55863,0.18621 5.04364,0 6.06091,0 0.33672,0 0.70899,-0.15058 1.01016,0 0.42591,0.21296 0.58423,0.79719 1.01015,1.01015 0.30049,0.15025 5.63598,0 6.06091,0 0.33672,0 0.77206,-0.23809 1.01016,0 0.23809,0.2381 -0.2381,0.77206 0,1.01016 0.47619,0.47619 1.54411,-0.4762 2.0203,0 0.2381,0.23809 -0.23809,0.77205 0,1.01015 0.47619,0.47619 1.41797,-0.30117 2.02031,0 0.42591,0.21296 0.58423,0.79719 1.01015,1.01015 0.30117,0.15059 0.70898,-0.15058 1.01015,0 0.42592,0.21296 0.58424,0.79719 1.01015,1.01015 0.30117,0.15059 0.77206,-0.23809 1.01016,0 0.47619,0.47619 -0.47619,1.54412 0,2.02031 0.23809,0.23809 0.70898,-0.15059 1.01015,0 0.26821,0.1341 2.89635,2.76225 3.03046,3.03046 0.15058,0.30116 -0.2381,0.77205 0,1.01015 0.23809,0.23809 0.77205,-0.2381 1.01015,0 0.23809,0.23809 -0.2381,0.77206 0,1.01015 0.23809,0.2381 0.77206,-0.23809 1.01015,0 0.2381,0.2381 -0.15058,0.70898 0,1.01015 0.21296,0.42592 0.67344,0.67344 1.01015,1.01016 0.33672,0.33671 0.58424,0.79719 1.01016,1.01015 0.30117,0.15058 0.77205,-0.2381 1.01015,0 0.50508,0.50507 -0.50508,2.52538 0,3.03046 0.23809,0.23809 0.77206,-0.2381 1.01015,0 0.2381,0.23809 -0.15058,0.70898 0,1.01015 0.60609,1.21218 2.42437,1.81827 3.03046,3.03046 0.30117,0.60233 -0.30117,1.41796 0,2.0203 0.21296,0.42592 0.79719,0.58424 1.01015,1.01015 0.20026,0.40052 -0.20651,2.82395 0,3.03046 0.2381,0.2381 0.77206,-0.23809 1.01015,0 0.2381,0.2381 0,0.67344 0,1.01015 0,0.24499 0.0325,2.99798 0,3.03046 -0.23809,0.2381 -0.77205,-0.23809 -1.01015,0 -0.2764,0.2764 0.274,3.49262 0,4.04061 -2.102,4.20401 0.0697,-1.07989 -2.0203,1.01015 -0.50508,0.50508 0.50507,2.52539 0,3.03046 -0.2381,0.2381 -0.77206,-0.23809 -1.01016,0 -0.47619,0.47619 0.47619,1.54412 0,2.02031 -0.47619,0.47619 -1.54411,-0.47619 -2.0203,0 -0.2381,0.23809 0.23809,0.77205 0,1.01015 -0.2381,0.23809 -0.70898,-0.15059 -1.01015,0 -0.85184,0.42592 -1.16847,1.59439 -2.02031,2.0203 -0.30712,0.15357 -3.34308,0 -4.04061,0"
       id="path8074"
       inkscape:connector-curvature="0" />
    <path
       style="fill:none;stroke:#000000;stroke-width:1px;stroke-linecap:butt;stroke-linejoin:miter;stroke-opacity:1"
       d="m 232.33509,136.15382 c 0.33671,-1.34687 -0.33672,-4.37732 1.01015,-4.04061 1.34687,0.33672 -2.25191,4.66149 -1.01015,4.04061 1.7561,-0.87805 1.94136,-3.41712 3.03045,-5.05076 1.38776,-2.08163 1.98704,0.0666 3.03046,-2.0203 0.15059,-0.30117 -0.23809,-0.77206 0,-1.01016 0.47619,-0.47619 1.41797,0.30117 2.02031,0 0.42591,-0.21296 0.58423,-0.79719 1.01015,-1.01015 0.59601,-0.298 2.33564,0.23161 3.03046,0 0.71428,-0.23809 1.30602,-0.77206 2.0203,-1.01015 0.63888,-0.21296 1.41797,0.30117 2.02031,0 0.42591,-0.21296 0.58423,-0.7972 1.01015,-1.01015 0.3653,-0.18266 4.34816,0 5.05076,0 0.33672,0 0.77206,0.23809 1.01015,0 0.2381,-0.2381 -0.23809,-0.77206 0,-1.01016 0.10102,-0.10101 2.92945,-0.10101 3.03046,0 0.2381,0.2381 -0.23809,0.77206 0,1.01016 0.2381,0.23809 0.67344,0 1.01015,0"
       id="path8076"
       inkscape:connector-curvature="0" />
    <path
       style="fill:none;stroke:#000000;stroke-width:1px;stroke-linecap:butt;stroke-linejoin:miter;stroke-opacity:1"
       d="m 245.46707,146.25535 c 1.34687,-1.01015 2.72595,-1.97873 4.04061,-3.03046 0.37184,-0.29747 0.58423,-0.79719 1.01015,-1.01015 0.60234,-0.30117 1.54412,0.47619 2.02031,0 0.23809,-0.2381 -0.2381,-0.77206 0,-1.01015 0.23809,-0.2381 0.67343,0 1.01015,0 1.68359,0 3.36717,0 5.05076,0 0.33672,0 0.77206,0.23809 1.01015,0 0.2381,-0.2381 -0.23809,-0.77206 0,-1.01016 0.2381,-0.23809 0.67344,0 1.01016,0 2.0203,0 4.04061,0 6.06091,0"
       id="path8078"
       inkscape:connector-curvature="0" />
    <path
       style="fill:none;stroke:#000000;stroke-width:1px;stroke-linecap:butt;stroke-linejoin:miter;stroke-opacity:1"
       d="m 293.95439,153.32642 c -1.25613,1.48255 4.30293,4.56525 5.05076,6.06091 0.15059,0.30117 -0.23809,0.77206 0,1.01016 0.2381,0.23809 0.77206,-0.2381 1.01016,0 0.23809,0.23809 -0.2381,0.77205 0,1.01015 0.23809,0.23809 0.77205,-0.2381 1.01015,0 0.23809,0.23809 -0.2381,0.77205 0,1.01015 2.09004,2.09004 -0.0817,-3.19386 2.0203,1.01015 0.30117,0.60234 -0.30117,1.41797 0,2.02031 0.21296,0.42592 0.7972,0.58423 1.01016,1.01015 0.15371,0.30742 0,2.57553 0,3.03046 0,0.37096 -0.0407,3.99996 0,4.04061 0.23809,0.23809 0.77205,-0.2381 1.01015,0 0.23809,0.23809 0,0.67343 0,1.01015 0,0.33672 0,0.67344 0,1.01015 0,2.02031 0,4.04061 0,6.06092 0,0.45493 0.15371,2.72303 0,3.03046 -0.21296,0.42591 -0.79719,0.58423 -1.01015,1.01015 -0.15059,0.30117 0.23809,0.77206 0,1.01015 -0.2381,0.2381 -0.77206,-0.23809 -1.01016,0 -0.23809,0.2381 0.2381,0.77206 0,1.01015 -0.23809,0.2381 -0.77205,-0.23809 -1.01015,0 -0.23809,0.2381 0.2381,0.77206 0,1.01016 -0.23809,0.23809 -0.70898,-0.15059 -1.01015,0 -0.42592,0.21296 -0.53875,0.94281 -1.01015,1.01015 -2,0.28571 -4.04061,0 -6.06092,0 -1.01015,0 -2.03992,-0.19811 -3.03046,0 -0.7383,0.14766 -1.34687,0.67343 -2.0203,1.01015"
       id="path8080"
       inkscape:connector-curvature="0" />
    <path
       style="fill:none;stroke:#000000;stroke-width:1px;stroke-linecap:butt;stroke-linejoin:miter;stroke-opacity:1"
       d="m 305.06607,134.13352 c 0.0502,2.35378 4.08655,2.11218 5.05076,4.04061 0.15059,0.30117 -0.15058,0.70898 0,1.01015 0.21296,0.42592 0.7972,0.58424 1.01015,1.01015 0.15059,0.30117 -0.15058,0.70899 0,1.01016 0.21296,0.42591 0.7972,0.58423 1.01016,1.01015 0.30117,0.60234 -0.47619,1.54411 0,2.0203 0.23809,0.2381 0.77205,-0.23809 1.01015,0 0.47619,0.47619 -0.47619,1.54412 0,2.02031 0.23809,0.23809 0.77206,-0.2381 1.01015,0 0.50508,0.50508 -0.50507,2.52538 0,3.03046 0.2381,0.23809 0.77206,-0.2381 1.01015,0 0.2381,0.23809 -0.15058,0.70898 0,1.01015 0.21296,0.42592 0.7972,0.58423 1.01016,1.01015 0.40406,0.80812 -0.40406,2.22234 0,3.03046 3.35025,3.35025 -0.47619,-0.95238 1.01015,2.0203 0.21296,0.42592 0.79719,0.58424 1.01015,1.01016 0.31745,0.6349 -0.31745,3.4057 0,4.04061 0.21296,0.42592 0.7972,0.58423 1.01015,1.01015 0.40407,0.80812 -0.40406,2.22234 0,3.03046 0.21296,0.42592 1.01016,0.53396 1.01016,1.01015 0,0.33672 -0.77206,-0.23809 -1.01016,0 -0.23809,0.2381 -0.23809,0.77206 0,1.01015 0.2381,0.2381 0.77206,-0.23809 1.01016,0 0.23809,0.2381 0,0.67344 0,1.01016 0,1.68358 0,3.36717 0,5.05076 0,0.33672 -0.2381,0.77206 0,1.01015 0.23809,0.2381 0.77205,-0.23809 1.01015,0 0.23809,0.2381 0,0.67344 0,1.01015 0,0.33672 0.15058,0.70899 0,1.01016 -0.1315,0.26299 -1.79982,1.23064 -1.01015,2.0203 0.23809,0.2381 0.77205,-0.23809 1.01015,0 0.0325,0.0325 0,2.78547 0,3.03046 0,0.24499 -0.0325,2.99797 0,3.03046 0.23809,0.23809 1.01015,-0.33672 1.01015,0 0,0.75292 -0.77206,1.30602 -1.01015,2.0203 -0.20078,0.60233 0,5.08221 0,6.06092 0,0.33671 0,0.67343 0,1.01015 0,0.33672 0.23809,0.77206 0,1.01015 -0.2381,0.2381 -0.77206,-0.23809 -1.01015,0 -0.2381,0.2381 0,0.67344 0,1.01015 0,0.70261 0.18265,4.68546 0,5.05077 -0.21296,0.42591 -0.7972,0.58423 -1.01016,1.01015 -0.20025,0.40052 0.20652,2.82395 0,3.03046 -0.23809,0.23809 -0.77205,-0.2381 -1.01015,0 -0.20651,0.20651 0.20026,2.62994 0,3.03045 -1.11675,2.23351 -0.62694,0.31348 -2.0203,1.01016 -0.42592,0.21296 -0.58424,0.79719 -1.01016,1.01015 -0.30117,0.15058 -0.77205,-0.2381 -1.01015,0 -0.23809,0.2381 0.2381,0.77206 0,1.01015 -0.47619,0.47619 -1.54411,-0.47619 -2.0203,0 -0.2381,0.2381 0.23809,0.77206 0,1.01015 -0.47619,0.4762 -1.41797,-0.30116 -2.02031,0 -0.42592,0.21296 -0.58423,0.7972 -1.01015,1.01016 -0.30117,0.15058 -1.01015,0.33671 -1.01015,0 0,-0.33672 1.01015,-0.33672 1.01015,0 0,1.24825 -1.41661,1.01015 -2.02031,1.01015 2.14536,5.3634 2.02031,3.23748 2.02031,6.06092 0,0.33671 -0.2381,0.77205 0,1.01015 0.23809,0.23809 0.77206,-0.2381 1.01015,0 0.0458,0.0458 0,4.57448 0,5.05076 0,0.45493 -0.15371,2.72303 0,3.03046 0.21296,0.42592 0.7972,0.58423 1.01015,1.01015 0.18266,0.36531 0,4.34816 0,5.05076 0,0.716 0.13059,5.79974 0,6.06092 -0.21295,0.42592 -0.79719,0.58423 -1.01015,1.01015 -0.34887,0.69775 0.35458,4.69618 0,5.05076 -0.5324,0.5324 -1.48791,0.47776 -2.0203,1.01016 -0.2381,0.23809 0.15058,0.70898 0,1.01015 -0.21296,0.42592 -0.67344,0.67343 -1.01016,1.01015 -0.33671,0.33672 -0.58423,0.7972 -1.01015,1.01015 -0.30117,0.15059 -0.67343,0 -1.01015,0 -0.33672,0.33672 -0.58424,0.7972 -1.01015,1.01016 -0.60234,0.30117 -1.54412,-0.47619 -2.02031,0 -0.23809,0.23809 0.2381,0.77205 0,1.01015 -0.23809,0.23809 -0.77206,-0.2381 -1.01015,0 -0.2381,0.23809 0.23809,0.77206 0,1.01015 -0.47619,0.47619 -1.41797,-0.30117 -2.02031,0 -0.85183,0.42592 -1.16847,1.59439 -2.0203,2.02031 -0.30117,0.15058 -0.70898,-0.15059 -1.01015,0 -0.42592,0.21296 -0.58424,0.79719 -1.01016,1.01015 -0.30117,0.15058 -0.77205,-0.2381 -1.01015,0 -0.23809,0.23809 0.2381,0.77206 0,1.01015 -0.23809,0.2381 -0.70898,-0.15058 -1.01015,0 -0.42592,0.21296 -0.58424,0.7972 -1.01015,1.01015 -0.60234,0.30117 -1.54412,-0.47619 -2.02031,0 -0.23809,0.2381 0.30117,0.85957 0,1.01016 -0.60234,0.30117 -1.38143,-0.21296 -2.0203,0 -0.45176,0.15058 -0.58424,0.79719 -1.01016,1.01015 -0.30117,0.15058 -0.70898,-0.15059 -1.01015,0 -0.42592,0.21296 -0.58423,0.79719 -1.01015,1.01015 -0.30117,0.15059 -0.70899,-0.15058 -1.01015,0 -0.85184,0.42592 -1.16847,1.59439 -2.02031,2.02031 -0.30117,0.15058 -0.70898,-0.15059 -1.01015,0 -0.42592,0.21296 -0.58424,0.79719 -1.01015,1.01015 -0.30117,0.15058 -0.70899,-0.15058 -1.01016,0 -0.42592,0.21296 -0.58423,0.79719 -1.01015,1.01015 -0.30117,0.15059 -0.67344,0 -1.01015,0 -0.33672,0 -0.67344,0 -1.01016,0 -1.06856,0 -6.55066,-0.17347 -7.07106,0 -0.45176,0.15059 -0.58424,0.7972 -1.01016,1.01015 -0.54799,0.274 -3.76421,-0.2764 -4.04061,0 -0.23809,0.2381 0.2381,0.77206 0,1.01016 -0.23809,0.23809 -0.70898,-0.15059 -1.01015,0 -0.42592,0.21296 -0.58423,0.79719 -1.01015,1.01015 -0.36531,0.18265 -4.34816,0 -5.05076,0 -3.7039,0 -7.40779,0 -11.11168,0 -3.03046,0 -6.06092,0 -9.09137,0 -0.33672,0 -0.77206,0.2381 -1.01016,0 -0.23809,-0.2381 0.2381,-0.77206 0,-1.01015 -0.47619,-0.47619 -1.41796,0.30117 -2.0203,0 -0.42592,-0.21296 -0.58424,-0.7972 -1.01015,-1.01016 -0.80813,-0.40406 -2.22234,0.40407 -3.03046,0 -0.42592,-0.21295 -0.58424,-0.79719 -1.01015,-1.01015 -0.60234,-0.30117 -1.41797,0.30117 -2.02031,0 -0.42592,-0.21296 -0.58423,-0.79719 -1.01015,-1.01015 -0.60234,-0.30117 -1.54412,0.47619 -2.02031,0 -0.23809,-0.2381 0.2381,-0.77206 0,-1.01015 -0.20651,-0.20651 -2.62994,0.20026 -3.03046,0 -0.42591,-0.21296 -0.58423,-0.7972 -1.01015,-1.01016 -0.40051,-0.20025 -2.82394,0.20652 -3.03046,0 -0.23809,-0.23809 0.2381,-0.77205 0,-1.01015 -2.69374,0 0.33672,0.33672 -1.01015,-1.01015 -0.47619,-0.47619 -1.54411,0.47619 -2.0203,0 -0.2381,-0.2381 0.23809,-0.77206 0,-1.01015 -0.35459,-0.35459 -4.35302,0.34887 -5.05077,0 -3.35025,-3.35026 0.95239,0.47619 -2.0203,-1.01016 -0.42592,-0.21295 -0.5584,-0.85956 -1.01015,-1.01015 -0.63888,-0.21296 -1.34687,0 -2.02031,0 -0.33672,0 -0.70898,0.15059 -1.01015,0 -0.42592,-0.21296 -0.58424,-0.79719 -1.01015,-1.01015 -0.548,-0.274 -3.76421,0.2764 -4.04061,0 -0.2381,-0.2381 0.23809,-0.77206 0,-1.01015 -0.24308,-0.24308 -3.79754,0.24307 -4.04061,0 -0.2381,-0.2381 0.23809,-0.77206 0,-1.01016 -0.47619,-0.47619 -1.41797,0.30117 -2.02031,0 -0.42592,-0.21295 -0.58423,-0.79719 -1.01015,-1.01015 -0.30117,-0.15058 -0.70898,0.15059 -1.01015,0 -0.42592,-0.21296 -0.58424,-0.79719 -1.01016,-1.01015 -0.30117,-0.15059 -0.70898,0.15058 -1.01015,0 -0.42592,-0.21296 -0.58423,-0.79719 -1.01015,-1.01015 -0.30117,-0.15059 -0.70898,0.15058 -1.01015,0 -0.42592,-0.21296 -0.58424,-0.7972 -1.01016,-1.01016 -0.30117,-0.15058 -0.77205,0.2381 -1.01015,0 -0.23809,-0.23809 0.2381,-0.77205 0,-1.01015 -0.47619,-0.47619 -1.41797,0.30117 -2.0203,0 -0.42592,-0.21296 -0.58424,-0.79719 -1.01016,-1.01015 -0.30117,-0.15059 -0.77205,0.23809 -1.01015,0 -0.23809,-0.2381 0.2381,-0.77206 0,-1.01015 -0.23809,-0.2381 -0.77206,0.23809 -1.01015,0 -0.2381,-0.2381 0.23809,-0.77206 0,-1.01016 -0.2381,-0.23809 -0.77206,0.2381 -1.01015,0 -0.2381,-0.23809 0.15058,-0.70898 0,-1.01015 -0.21296,-0.42592 -0.7972,-0.58423 -1.01016,-1.01015 -0.69668,-1.39336 1.22335,-0.90355 -1.01015,-2.02031 -0.30117,-0.15058 -0.70898,0.15059 -1.01015,0 -0.42592,-0.21296 -0.58424,-0.79719 -1.01015,-1.01015 -0.30117,-0.15058 -0.70899,0.15059 -1.01016,0 -0.42592,-0.21296 -0.67343,-0.67343 -1.01015,-1.01015 -1.34687,-1.34687 -2.69374,-2.69374 -4.04061,-4.04061 -0.33672,-0.33672 -0.67344,-0.67344 -1.01015,-1.01015 -0.33672,-0.33672 -0.58424,-0.7972 -1.01016,-1.01016 -0.30116,-0.15058 -0.77205,0.2381 -1.01015,0 -0.23809,-0.23809 0.2381,-0.77205 0,-1.01015 -0.23809,-0.23809 -0.70898,0.15059 -1.01015,0 -1.21218,-0.60609 -1.81827,-2.42437 -3.03046,-3.03046 -0.30117,-0.15058 -0.77206,0.2381 -1.01015,0 -0.2381,-0.23809 0.15058,-0.70898 0,-1.01015 -0.21296,-0.42592 -0.67344,-0.67343 -1.01015,-1.01015 -1.01016,-1.01015 -2.02031,-2.02031 -3.03046,-3.03046 -0.67344,-0.67343 -1.49202,-1.22788 -2.02031,-2.0203 -0.51371,-0.77057 -1.50659,-3.27005 -2.0203,-4.04061 -0.52829,-0.79243 -1.59439,-1.16847 -2.02031,-2.02031 -0.15058,-0.30117 0.15059,-0.70898 0,-1.01015 -0.42591,-0.85184 -1.59438,-1.16847 -2.0203,-2.02031 -0.30117,-0.60234 0.47619,-1.54411 0,-2.0203 -0.2381,-0.2381 -0.77206,0.23809 -1.01015,0 -0.47619,-0.47619 0.30117,-1.41797 0,-2.02031 -0.21296,-0.42592 -0.7972,-0.58423 -1.01016,-1.01015 -0.15058,-0.30117 0.15059,-0.70898 0,-1.01015 -0.42591,-0.85184 -1.59438,-1.16847 -2.0203,-2.02031 -0.15059,-0.30117 0.23809,-0.77206 0,-1.01015 -2.09004,-2.09004 0.0817,3.19386 -2.02031,-1.01015 -0.15058,-0.30117 0.15059,-0.70899 0,-1.01016 -0.42591,-0.85183 -1.59438,-1.16847 -2.0203,-2.0203 -0.15059,-0.30117 0.15058,-0.70898 0,-1.01015 -3.35026,-3.35026 0.47619,0.95238 -1.01015,-2.02031 -0.21296,-0.42592 -0.7972,-0.58423 -1.01016,-1.01015 -0.53894,-1.0779 0.53895,-0.94241 0,-2.02031 -0.21296,-0.42591 -0.79719,-0.58423 -1.01015,-1.01015 -0.22475,-0.44949 0.15401,-3.57858 0,-4.04061 -0.15058,-0.45175 -0.85957,-0.5584 -1.01015,-1.01015 -0.21296,-0.63888 0.21296,-1.38143 0,-2.02031 -1.24825,-3.74474 -1.01015,1.23133 -1.01015,-2.0203 0,-0.716 0.13058,-5.79974 0,-6.06092 -0.42592,-0.85183 -1.59439,-1.16847 -2.02031,-2.0203 -0.40406,-0.80812 0.40406,-2.22234 0,-3.03046 -0.21296,-0.42592 -0.79719,-0.58423 -1.01015,-1.01015 -0.15059,-0.30117 0.15058,-0.70899 0,-1.01015 -0.21296,-0.42592 -0.7972,-0.58424 -1.01015,-1.01016 -0.15059,-0.30117 0,-0.67343 0,-1.01015 0,-0.33672 0,-0.67343 0,-1.01015 0,-1.68359 0,-3.36718 0,-5.05076 0,-0.33672 0,-0.67344 0,-1.01016 0,-0.33671 0.15058,-0.70898 0,-1.01015 -0.21296,-0.42592 -0.85957,-0.5584 -1.01016,-1.01015 -0.21296,-0.63888 0.21296,-1.38143 0,-2.02031 -0.15058,-0.45175 -0.79719,-0.58423 -1.01015,-1.01015 -0.31745,-0.6349 0.31745,-3.40571 0,-4.04061 -0.21296,-0.42592 -0.79719,-0.58424 -1.01015,-1.01015 -0.13668,-0.27335 0,-5.6258 0,-6.06092 0,-3.70389 0,-7.40778 0,-11.11168 0,-3.36717 0,-6.73435 0,-10.10152 0,-0.52823 -0.13281,-3.775 0,-4.04061 0.21296,-0.42592 0.79719,-0.58424 1.01015,-1.01015 0.15059,-0.30117 -0.23809,-0.77206 0,-1.01016 0.2381,-0.23809 0.85957,0.30117 1.01015,0 0.30117,-0.60234 -0.30117,-1.41796 0,-2.0203 1.04502,0 1.39618,0.23809 2.02031,-1.01015 0.40406,-0.80813 -0.40406,-2.22234 0,-3.03046 1.11675,-2.2335 0.62694,-0.31347 2.0203,-1.01015 0.42592,-0.21296 0.67344,-0.67344 1.01016,-1.01016 0.33671,-0.33671 0.67343,-0.67343 1.01015,-1.01015 0.33672,-0.33672 0.79719,-0.58423 1.01015,-1.01015 0.15059,-0.30117 -0.15058,-0.70899 0,-1.01015 2.10201,-4.20402 -0.0697,1.07988 2.02031,-1.01016 0.23809,-0.23809 -0.2381,-0.77205 0,-1.01015 0.23809,-0.2381 0.77205,0.2381 1.01015,0 0.23809,-0.2381 -0.2381,-0.77206 0,-1.01015 3.94236,-3.94236 0.5425,0.23382 3.03046,-1.01015 0.42591,-0.21296 0.67343,-0.67344 1.01015,-1.01016 0.33672,-0.33671 0.79719,-0.58423 1.01015,-1.01015 0,-2.69374 -0.33672,0.33672 1.01015,-1.01015 0.2381,-0.2381 -0.23809,-0.77206 0,-1.01016 0.47619,-0.47619 1.54412,0.4762 2.02031,0 0.23809,-0.23809 -0.2381,-0.77205 0,-1.010148 0.47619,-0.47619 1.41797,0.301168 2.0203,0 0.42592,-0.212959 0.58424,-0.797193 1.01016,-1.010152 0.66552,-0.332762 5.12676,0.311383 6.06091,0 0.45176,-0.150585 0.58424,-0.797194 1.01015,-1.010153 1.1845,-0.592247 1.19894,0.599469 2.02031,1.010153 0.30117,0.150584 0.67343,0 1.01015,0 0.33672,0 0.67344,0 1.01015,0 2.35703,0 4.71405,0 7.07107,0 0.45493,0 2.72304,-0.153712 3.03046,0 0.56128,0.280638 1.69459,2.0203 2.02031,2.0203 0.47619,0 0.58423,-0.79719 1.01015,-1.010148 0.30117,-0.150584 0.67343,0 1.01015,0 0.33672,0 0.77206,-0.238095 1.01015,0 0.2381,0.238098 -0.23809,0.772058 0,1.010148 0.35459,0.35459 4.35302,-0.34887 5.05077,0 0.42591,0.21296 0.58423,0.7972 1.01015,1.01016 0.60234,0.30117 1.54411,-0.47619 2.0203,0 0.2381,0.23809 -0.23809,0.77205 0,1.01015 0.2381,0.2381 0.67344,0 1.01016,0 1.68358,0 3.36717,0 5.05076,0"
       id="path8082"
       inkscape:connector-curvature="0" />
    <path
       style="fill:none;stroke:#000000;stroke-width:1px;stroke-linecap:butt;stroke-linejoin:miter;stroke-opacity:1"
       d="m 205.06097,118.98123 c 1.34687,0.67344 4.71404,0.67344 4.04061,2.02031 -0.67344,1.34687 -4.71405,-3.36718 -4.04061,-2.02031 2.12547,4.25096 3.39263,4.04061 6.06091,4.04061 0.33672,0 0.77206,-0.23809 1.01015,0 0.2381,0.2381 -0.15058,0.70898 0,1.01015 1.2084,2.41679 0.81192,-0.39647 2.02031,2.02031 0.15058,0.30117 0,0.67343 0,1.01015 0.33672,0.33672 0.79719,0.58424 1.01015,1.01015 0.15059,0.30117 -0.15058,0.70899 0,1.01016 2.10201,4.20401 -0.0697,-1.07989 2.02031,1.01015 0.23809,0.23809 -0.15059,0.70898 0,1.01015 0.21296,0.42592 0.67343,0.67344 1.01015,1.01015 0.33672,0.33672 0.61394,0.74601 1.01015,1.01016 0.62647,0.41764 1.30602,0.77205 2.02031,1.01015 0.7103,0.23677 4.77387,-0.27689 5.05076,0 0.2381,0.23809 -0.2381,0.77206 0,1.01015 0.2381,0.2381 0.67344,0 1.01015,0 1.68359,0 3.36718,0 5.05077,0"
       id="path8084"
       inkscape:connector-curvature="0" />
    <path
       style="fill:none;stroke:#000000;stroke-width:1px;stroke-linecap:butt;stroke-linejoin:miter;stroke-opacity:1"
       d="m 246.47722,146.25535 c -0.51622,6.09748 3.83671,-0.2039 5.05076,1.01015 0.2381,0.2381 -0.15058,0.70899 0,1.01015 0.21296,0.42592 0.7972,0.58424 1.01016,1.01016 0.30117,0.60234 -0.47619,1.54411 0,2.0203 0.23809,0.2381 0.70898,-0.15058 1.01015,0 4.20401,2.10201 -1.07989,-0.0697 1.01015,2.02031 0.2381,0.23809 0.70898,-0.15059 1.01015,0 2.41891,1.20945 -0.63659,2.0203 2.02031,2.0203"
       id="path8086"
       inkscape:connector-curvature="0" />
    <path
       style="fill:none;stroke:#000000;stroke-width:1px;stroke-linecap:butt;stroke-linejoin:miter;stroke-opacity:1"
       d="m 277.79195,173.52947 c 1.09182,4.36727 1.01015,2.65229 1.01015,5.05076 0,0.33672 -0.23809,0.77206 0,1.01015 0.2381,0.2381 0.77206,-0.23809 1.01016,0 0.47619,0.47619 -0.4762,1.54412 0,2.02031 0.23809,0.23809 0.77205,-0.2381 1.01015,0 0.23809,0.23809 -0.2381,0.77206 0,1.01015 0.23809,0.2381 0.77205,-0.23809 1.01015,0 0.67368,0.67369 -0.67368,1.34662 0,2.02031 2.69474,2.69473 -0.67443,-2.69474 2.02031,0 0.23809,0.23809 -0.2381,0.77205 0,1.01015 0.23809,0.23809 0.77205,-0.2381 1.01015,0 0.23809,0.23809 0,0.67343 0,1.01015 0.33672,0 0.77206,-0.23809 1.01015,0 0.2381,0.2381 -0.23809,0.77206 0,1.01015 0.2381,0.2381 0.77206,-0.23809 1.01015,0 2.09004,2.09005 -3.19386,-0.0817 1.01016,2.02031 0.30116,0.15058 0.77205,-0.2381 1.01015,0 0.23809,0.23809 -0.2381,0.77206 0,1.01015 0.47619,0.47619 1.41796,-0.30117 2.0203,0 0.42592,0.21296 1.34687,0.67344 1.01016,1.01015 -0.33672,0.33672 -1.48635,-1.01015 -1.01016,-1.01015 0.75293,0 1.30602,0.77206 2.02031,1.01015 0.56992,0.18998 2.36668,0 3.03046,0"
       id="path8088"
       inkscape:connector-curvature="0" />
  </g>
</svg>
