<?xml version="1.0" encoding="UTF-8" standalone="no"?>
<!-- Created with Inkscape (http://www.inkscape.org/) -->

<svg
   xmlns:dc="http://purl.org/dc/elements/1.1/"
   xmlns:cc="http://creativecommons.org/ns#"
   xmlns:rdf="http://www.w3.org/1999/02/22-rdf-syntax-ns#"
   xmlns:svg="http://www.w3.org/2000/svg"
   xmlns="http://www.w3.org/2000/svg"
   xmlns:sodipodi="http://sodipodi.sourceforge.net/DTD/sodipodi-0.dtd"
   xmlns:inkscape="http://www.inkscape.org/namespaces/inkscape"
   width="210mm"
   height="297mm"
   id="svg8850"
   version="1.1"
   inkscape:version="0.48.5 r10040"
   sodipodi:docname="scivolamento.svg">
  <defs
     id="defs3">
    <marker
       inkscape:stockid="Arrow1Lend"
       orient="auto"
       refY="0.0"
       refX="0.0"
       id="Arrow1Lend"
       style="overflow:visible;">
      <path
         id="path3811"
         d="M 0.0,0.0 L 5.0,-5.0 L -12.5,0.0 L 5.0,5.0 L 0.0,0.0 z "
         style="fill-rule:evenodd;stroke:#000000;stroke-width:1.0pt;"
         transform="scale(0.8) rotate(180) translate(12.5,0)" />
    </marker>
  </defs>
  <sodipodi:namedview
     inkscape:document-units="mm"
     id="base"
     pagecolor="#ffffff"
     bordercolor="#666666"
     borderopacity="1.0"
     inkscape:pageopacity="0.0"
     inkscape:pageshadow="2"
     inkscape:zoom="1.4"
     inkscape:cx="279.25831"
     inkscape:cy="814.81036"
     inkscape:current-layer="layer1"
     showgrid="false"
     inkscape:window-width="1920"
     inkscape:window-height="1014"
     inkscape:window-x="0"
     inkscape:window-y="27"
     inkscape:window-maximized="1" />
  <metadata
     id="metadata4">
    <rdf:RDF>
      <cc:Work
         rdf:about="">
        <dc:format>image/svg+xml</dc:format>
        <dc:type
           rdf:resource="http://purl.org/dc/dcmitype/StillImage" />
        <dc:title></dc:title>
      </cc:Work>
    </rdf:RDF>
  </metadata>
  <g
     inkscape:label="Layer 1"
     inkscape:groupmode="layer"
     id="layer1">
    <path
       style="fill:none;stroke:#000000;stroke-width:0.47882026px;stroke-linecap:butt;stroke-linejoin:miter;stroke-opacity:1"
       d="m 141.47255,172.39122 25.10187,-9.50633 c 0,0 -0.0408,-34.53396 8.78565,-44.17651 9.08614,-9.92625 24.43905,-9.22603 35.14261,-2.79598 12.13794,7.29174 21.47696,24.67665 24.6835,41.93972 0.37569,2.0226 -0.83673,6.15116 -0.83673,6.15116 l 24.68351,6.15115"
       id="path8856"
       inkscape:connector-curvature="0"
       sodipodi:nodetypes="ccssscc" />
    <path
       style="fill:none;stroke:#000000;stroke-width:0.53549421px;stroke-linecap:butt;stroke-linejoin:miter;stroke-opacity:1"
       d="m 175.35248,161.20338 c -8.02747,1.6563 1.71698,-25.17314 8.37663,-32.0669 7.1575,-7.40911 16.74441,-5.56414 23.73378,-1.25753 5.59235,3.44583 10.28456,9.89547 13.49566,16.9766 1.76995,3.90311 2.79221,13.20402 2.79221,13.20402 0.64043,-2.33628 -32.96462,-0.0406 -48.39828,3.14381 z"
       id="path8858"
       inkscape:connector-curvature="0"
       sodipodi:nodetypes="sssscs" />
    <path
       style="fill:none;stroke:#000000;stroke-width:0.56227785px;stroke-linecap:butt;stroke-linejoin:miter;stroke-opacity:1"
       d="m 224.74059,134.83166 c 0,0 13.52103,-9.03716 21.41763,-4.323 11.26117,6.72278 12.53715,39.52466 12.53715,39.52466"
       id="path8860"
       inkscape:connector-curvature="0"
       sodipodi:nodetypes="csc" />
    <path
       style="fill:none;stroke:#000000;stroke-width:0.4853285px;stroke-linecap:butt;stroke-linejoin:miter;stroke-opacity:1"
       d="m 222.28442,127.52896 c 0,0 15.24716,-14.95208 26.9797,-7.73265 13.95314,8.58584 14.79533,43.08186 14.79533,43.08186"
       id="path8862"
       inkscape:connector-curvature="0"
       sodipodi:nodetypes="csc" />
    <path
       style="fill:none;stroke:#000000;stroke-width:0.47496575px;stroke-linecap:butt;stroke-linejoin:miter;stroke-opacity:1"
       d="m 263.00272,161.22561 c -1.52165,0.0961 11.77279,4.93309 20.33529,7.69764"
       id="path8866"
       inkscape:connector-curvature="0"
       sodipodi:nodetypes="cc" />
    <path
       style="fill:none;stroke:#000000;stroke-width:0.54578131px;stroke-linecap:butt;stroke-linejoin:miter;stroke-opacity:1"
       d="m 366.62798,177.1634 c 0,0 9.59689,-50.99014 29.59759,-53.23778 22.78696,-2.56077 26.28403,38.28267 38.36723,51.5741 1.89202,2.08121 5.48103,-1.10912 8.22155,-1.66368 2.74051,-0.55456 5.92673,-0.0497 8.22155,-1.66368 11.99012,-8.43285 0.16438,-33.7536 18.63551,-33.27362 18.85718,0.49002 12.70598,27.34585 25.21275,35.49186 2.61609,1.70393 9.31776,0.55456 9.31776,0.55456"
       id="path8868"
       inkscape:connector-curvature="0"
       sodipodi:nodetypes="cssssssc" />
    <path
       style="fill:none;stroke:#000000;stroke-width:0.64723927px;stroke-linecap:butt;stroke-linejoin:miter;stroke-opacity:1"
       d="m 382.4017,180.9292 c 0,0 4.38601,-39.71892 16.27306,-40.97877 13.45898,-1.42645 25.03547,40.97877 25.03547,40.97877"
       id="path8870"
       inkscape:connector-curvature="0"
       sodipodi:nodetypes="csc" />
    <path
       style="fill:none;stroke:#000000;stroke-width:0.50439876px;stroke-linecap:butt;stroke-linejoin:miter;stroke-opacity:1"
       d="m 461.60878,177.01078 c 0,0 2.39575,-29.41841 9.88784,-28.9861 7.07263,0.40812 7.73831,28.38223 7.73831,28.38223 z"
       id="path8872"
       inkscape:connector-curvature="0"
       sodipodi:nodetypes="cscc" />
    <path
       style="fill:none;stroke:#000000;stroke-width:0.80420792px;stroke-linecap:butt;stroke-linejoin:miter;stroke-opacity:1"
       d="m 424.33244,177.00808 -41.15895,1.01015"
       id="path8874"
       inkscape:connector-curvature="0" />
    <path
       style="fill:none;stroke:#000000;stroke-width:0.51041144;stroke-linecap:butt;stroke-linejoin:miter;stroke-miterlimit:4;stroke-opacity:1;stroke-dasharray:none;marker-end:url(#Arrow1Lend)"
       d="m 299.8514,147.57188 56.87171,0"
       id="path8884"
       inkscape:connector-curvature="0" />
  </g>
</svg>
